<?xml version="1.0" encoding="utf-8"?>
<!-- Generator: Adobe Illustrator 27.5.0, SVG Export Plug-In . SVG Version: 6.00 Build 0)  -->
<svg version="1.1" xmlns="http://www.w3.org/2000/svg" xmlns:xlink="http://www.w3.org/1999/xlink" x="0px" y="0px"
	 viewBox="0 0 500 500" style="enable-background:new 0 0 500 500;" xml:space="preserve">
<g id="Background_Simple">
	<g>
		<path style="fill:#92E3A9;" d="M477.88,234.787c-5.101,43.199-24.825,93.426-64.219,116.5
			c-59.521,34.87-54.538,88.501-170.716,111.817c-18.113,3.637-35.303,5.168-51.512,4.865c-8.713-0.161-17.148-0.864-25.283-2.061
			C92.312,455.122,42.622,403.797,24.392,341.842c-23.99-81.482,23.912-134.826,55.663-166.966
			c31.751-32.14,55.006-132.284,169.036-156.102c17.387-3.624,35.167-5.473,52.942-5.03c40.571,0.996,84.824,14.318,115.445,42.124
			c2.299,2.089,4.535,4.256,6.715,6.488C466.753,106.04,484.838,175.893,477.88,234.787z"/>
		<path style="opacity:0.7;fill:#FFFFFF;" d="M477.88,234.787c-5.101,43.199-24.825,93.426-64.219,116.5
			c-59.521,34.87-54.538,88.501-170.716,111.817c-18.113,3.637-35.303,5.168-51.512,4.865c-8.713-0.161-17.148-0.864-25.283-2.061
			C92.312,455.122,42.622,403.797,24.392,341.842c-23.99-81.482,23.912-134.826,55.663-166.966
			c31.751-32.14,55.006-132.284,169.036-156.102c17.387-3.624,35.167-5.473,52.942-5.03c40.571,0.996,84.824,14.318,115.445,42.124
			c2.299,2.089,4.535,4.256,6.715,6.488C466.753,106.04,484.838,175.893,477.88,234.787z"/>
	</g>
</g>
<g id="Floor">
	<g>
		
			<line style="fill:none;stroke:#263238;stroke-linecap:round;stroke-linejoin:round;stroke-miterlimit:10;" x1="345.287" y1="462.002" x2="484.475" y2="462.002"/>
		
			<line style="fill:none;stroke:#263238;stroke-linecap:round;stroke-linejoin:round;stroke-miterlimit:10;" x1="24.807" y1="462.002" x2="336.174" y2="462.002"/>
	</g>
</g>
<g id="Plant">
	<g>
		<g>
			<path style="fill:#92E3A9;stroke:#263238;stroke-linecap:round;stroke-linejoin:round;stroke-miterlimit:10;" d="M32.983,255.622
				c0,0-3.431,9.436-10.722,10.722c-7.291,1.287-20.158-12.866-12.009-20.158C18.401,238.896,29.552,250.476,32.983,255.622z"/>
			<path style="fill:#92E3A9;stroke:#263238;stroke-linecap:round;stroke-linejoin:round;stroke-miterlimit:10;" d="M44.134,209.303
				c0,0-10.722,26.162-6.433,39.029c4.289,12.867,30.88,22.302,38.6,5.576c7.72-16.727-9.436-40.315-15.869-45.462
				C53.998,203.298,46.278,205.014,44.134,209.303z"/>
			<path style="fill:#92E3A9;stroke:#263238;stroke-linecap:round;stroke-linejoin:round;stroke-miterlimit:10;" d="
				M106.752,220.454c0,0-18.442,16.727-20.587,33.453c-2.145,16.727,10.293,22.731,23.16,20.587
				c12.867-2.145,19.3-34.74,15.44-49.751C120.905,209.731,106.752,220.454,106.752,220.454z"/>
			<g>
				<path style="fill:#92E3A9;stroke:#263238;stroke-linecap:round;stroke-linejoin:round;stroke-miterlimit:10;" d="
					M110.183,313.094c0,0-20.587,0.858-21.444,10.722c-0.858,9.865,9.007,12.009,18.871,3.431
					C117.474,318.669,118.76,313.522,110.183,313.094z"/>
				<path style="fill:none;stroke:#263238;stroke-miterlimit:10;" d="M89.079,326.167c0,0,16.225-7.423,23.531-8.712"/>
			</g>
			<g>
				<path style="fill:#92E3A9;stroke:#263238;stroke-linecap:round;stroke-linejoin:round;stroke-miterlimit:10;" d="
					M114.772,377.64c0,0-15.122-13.996-22.722-7.65c-7.601,6.346-2.167,14.854,10.87,15.802
					C115.958,386.742,120.515,384.026,114.772,377.64z"/>
				<path style="fill:none;stroke:#263238;stroke-miterlimit:10;" d="M90.622,371.889c0,0,16.702,6.274,22.768,10.547"/>
			</g>
			<g>
				<path style="fill:#92E3A9;stroke:#263238;stroke-linecap:round;stroke-linejoin:round;stroke-miterlimit:10;" d="
					M35.006,373.518c0,0,20.845-19.293,31.323-10.545c10.478,8.748,2.988,20.476-14.985,21.783
					C33.372,386.065,27.089,382.321,35.006,373.518z"/>
				<path style="fill:none;stroke:#263238;stroke-miterlimit:10;" d="M68.296,365.591c0,0-23.024,8.648-31.385,14.538"/>
			</g>
			<path style="fill:#92E3A9;stroke:#263238;stroke-linecap:round;stroke-linejoin:round;stroke-miterlimit:10;" d="M59.145,333.68
				c0,0-2.144,10.293-9.864,14.153c-7.72,3.86-21.445-4.289-14.153-16.727C42.418,318.669,55.285,328.533,59.145,333.68z"/>
			<path style="fill:#92E3A9;stroke:#263238;stroke-linecap:round;stroke-linejoin:round;stroke-miterlimit:10;" d="M41.132,301.514
				c0,0-3.86-8.578-18.871-3.002c-15.011,5.576-21.016,14.153-11.58,17.155C20.116,318.669,41.132,301.514,41.132,301.514z"/>
			<path style="fill:none;stroke:#263238;stroke-miterlimit:10;" d="M38.257,301.123c0,0-15.902,1.719-24.498,9.025"/>
			<path style="fill:#92E3A9;stroke:#263238;stroke-linecap:round;stroke-linejoin:round;stroke-miterlimit:10;" d="M84.021,198.58
				c0,0,2.573,6.004,7.72,4.718c5.146-1.286,6.433-9.007,14.582-6.862c8.149,2.145,15.011,11.58,15.011,7.291
				c0-4.289-10.293-15.44-21.873-15.44C87.881,188.287,84.449,193.005,84.021,198.58z"/>
			<path style="fill:none;stroke:#263238;stroke-miterlimit:10;" d="M41.132,301.514c0,0,18.468-3.545,26.158,16.963
				c0.755,2.012,1.392,4.117,1.928,6.276"/>
			<path style="fill:#92E3A9;stroke:#263238;stroke-linecap:round;stroke-linejoin:round;stroke-miterlimit:10;" d="
				M118.205,281.647c0,0,3.86-8.578,18.871-3.002c15.011,5.576,21.015,14.154,11.58,17.155
				C139.221,298.802,118.205,281.647,118.205,281.647z"/>
			<path style="fill:none;stroke:#263238;stroke-miterlimit:10;" d="M121.635,282.212c0,0,15.472-0.86,22.778,8.166"/>
			<path style="fill:none;stroke:#263238;stroke-miterlimit:10;" d="M118.205,281.647c0,0-6.122-1.175-12.784,1.742"/>
			<path style="fill:none;stroke:#263238;stroke-miterlimit:10;" d="M50.976,266.261c-9.052-9.243-17.994-10.638-17.994-10.638
				s-13.206-3.495-18.363,1.233"/>
			<g>
				<line style="fill:none;stroke:#263238;stroke-miterlimit:10;" x1="52.813" y1="218.751" x2="52.011" y2="215.166"/>
				<path style="fill:none;stroke:#263238;stroke-miterlimit:10;" d="M73.698,408.358c0,0,1.923-73.86,0-96.29
					c-1.923-22.43-10.895-48.706-10.895-48.706l-9.14-40.813"/>
				<line style="fill:none;stroke:#263238;stroke-miterlimit:10;" x1="111.817" y1="234.609" x2="113.469" y2="231.068"/>
				<path style="fill:none;stroke:#263238;stroke-miterlimit:10;" d="M78.184,408.276c0,0,0.641-67.37,3.205-86.596
					c2.563-19.226,12.817-49.347,12.817-49.347l15.736-33.709"/>
				<path style="fill:none;stroke:#263238;stroke-miterlimit:10;" d="M89.079,326.167c0,0-4.486,38.624-7.049,82.203"/>
				<path style="fill:none;stroke:#263238;stroke-miterlimit:10;" d="M67.29,408.276c0,0,1.282-61.602-1.282-69.933
					c-2.563-8.331-6.863-4.663-6.863-4.663s-11.862,1.395-16.16,8.272"/>
				<path style="fill:none;stroke:#263238;stroke-miterlimit:10;" d="M70.234,329.551c3.353,18.787,0.26,78.789,0.26,78.789"/>
				<path style="fill:none;stroke:#263238;stroke-miterlimit:10;" d="M101.788,285.403c-3.712,2.541-7.279,6.641-9.741,13.206
					c-7.69,20.508-6.813,109.76-6.813,109.76"/>
				<path style="fill:none;stroke:#263238;stroke-miterlimit:10;" d="M53.208,268.706c4.006,4.704,7.891,11.065,10.877,19.649
					c10.254,29.48,14.099,105.822,12.177,119.921"/>
				<path style="fill:none;stroke:#263238;stroke-miterlimit:10;" d="M79.25,296.295c-0.624,37.206-1.066,111.982-1.066,111.982"/>
			</g>
			<path style="fill:none;stroke:#263238;stroke-miterlimit:10;" d="M79.329,291.665c0.423-24.602,0.921-48.679,1.419-61.629
				c1.282-33.325,3.273-31.456,3.273-31.456s2.373-7.482,15.696-6.623"/>
			<g>
				<path style="fill:#92E3A9;stroke:#263238;stroke-linecap:round;stroke-linejoin:round;stroke-miterlimit:10;" d="M62.917,319.76
					c0,0-10.722-9.562-6.433-14.264c4.289-4.702,30.88-8.151,38.6-2.038c7.72,6.113-9.436,14.734-15.869,16.615
					C72.781,321.955,65.061,321.328,62.917,319.76z"/>
				<path style="fill:none;stroke:#263238;stroke-miterlimit:10;" d="M72.819,311.931c-0.15,0.968-0.238,1.93-0.238,2.855"/>
				<path style="fill:none;stroke:#263238;stroke-miterlimit:10;" d="M76.505,300.769c0,0-1.595,3.191-2.752,7.102"/>
			</g>
			<g>
				<path style="fill:#92E3A9;stroke:#263238;stroke-linecap:round;stroke-linejoin:round;stroke-miterlimit:10;" d="
					M62.917,382.277c0,0-10.722-9.562-6.433-14.264c4.289-4.702,30.88-8.151,38.6-2.038c7.72,6.113-9.436,14.734-15.869,16.615
					C72.781,384.471,65.061,383.845,62.917,382.277z"/>
				<path style="fill:none;stroke:#263238;stroke-miterlimit:10;" d="M76.505,363.285c0,0-3.925,7.85-3.925,14.017"/>
			</g>
			<g>
				<path style="fill:#92E3A9;stroke:#263238;stroke-linecap:round;stroke-linejoin:round;stroke-miterlimit:10;" d="
					M70.899,355.837c0,0-7.28-6.492-4.368-9.685c2.912-3.193,20.966-5.534,26.208-1.383c5.242,4.151-6.406,10.004-10.774,11.281
					C77.596,357.327,72.355,356.901,70.899,355.837z"/>
				<path style="fill:none;stroke:#263238;stroke-miterlimit:10;" d="M80.125,342.943c0,0-2.665,5.33-2.665,9.517"/>
			</g>
		</g>
		
			<rect x="60.828" y="397.642" style="fill:#FFFFFF;stroke:#263238;stroke-linecap:round;stroke-linejoin:round;stroke-miterlimit:10;" width="29.025" height="64.359"/>
	</g>
</g>
<g id="Tab_2">
	<g>
		<path style="fill:#263238;stroke:#263238;stroke-linecap:round;stroke-linejoin:round;stroke-miterlimit:10;" d="M364.817,367.723
			H273.74c-2.414,0-4.372-1.957-4.372-4.371V284.34c0-2.414,1.957-4.371,4.372-4.371h91.077c2.414,0,4.372,1.957,4.372,4.371v79.012
			C369.188,365.766,367.231,367.723,364.817,367.723z"/>
		<path style="fill:#FFFFFF;stroke:#263238;stroke-linecap:round;stroke-linejoin:round;stroke-miterlimit:10;" d="M361.65,362.973
			h-91.077c-2.414,0-4.371-1.957-4.371-4.372V279.59c0-2.414,1.957-4.372,4.371-4.372h91.077c2.414,0,4.372,1.957,4.372,4.372
			v79.011C366.021,361.015,364.064,362.973,361.65,362.973z"/>
		<path style="fill:#92E3A9;stroke:#263238;stroke-linecap:round;stroke-linejoin:round;stroke-miterlimit:10;" d="M366.021,286.314
			v-6.724c0-2.414-1.957-4.372-4.372-4.372h-91.077c-2.414,0-4.371,1.957-4.371,4.372v6.724H366.021z"/>
		<g>
			
				<circle style="fill:#FFFFFF;stroke:#263238;stroke-linecap:round;stroke-linejoin:round;stroke-miterlimit:10;" cx="339.69" cy="281.051" r="2.673"/>
			<path style="fill:#FFFFFF;stroke:#263238;stroke-linecap:round;stroke-linejoin:round;stroke-miterlimit:10;" d="
				M350.829,281.051c0-1.476-1.197-2.673-2.673-2.673c-1.476,0-2.673,1.197-2.673,2.673s1.197,2.673,2.673,2.673
				C349.632,283.724,350.829,282.527,350.829,281.051z"/>
			
				<circle style="fill:#FFFFFF;stroke:#263238;stroke-linecap:round;stroke-linejoin:round;stroke-miterlimit:10;" cx="356.62" cy="281.051" r="2.673"/>
		</g>
		<path style="fill:none;stroke:#263238;stroke-miterlimit:10;" d="M353.654,292.332h-73.888c-1.264,0-2.289,1.025-2.289,2.289
			v19.693v8.348l5.333-8.348h70.844c1.264,0,2.289-1.025,2.289-2.289v-17.404C355.943,293.357,354.919,292.332,353.654,292.332z"/>
		<path style="fill:none;stroke:#263238;stroke-miterlimit:10;" d="M279.766,327.392h73.888c1.264,0,2.289,1.025,2.289,2.289v19.693
			v8.348l-5.333-8.348h-70.844c-1.264,0-2.289-1.025-2.289-2.289v-17.404C277.477,328.417,278.502,327.392,279.766,327.392z"/>
		<g>
			<g>
				
					<circle style="fill:#92E3A9;stroke:#263238;stroke-linecap:round;stroke-linejoin:round;stroke-miterlimit:10;" cx="290.972" cy="303.184" r="6.678"/>
				
					<circle style="fill:#FFFFFF;stroke:#263238;stroke-linecap:round;stroke-linejoin:round;stroke-miterlimit:10;" cx="290.972" cy="301.237" r="2.783"/>
				<path style="fill:#FFFFFF;stroke:#263238;stroke-linecap:round;stroke-linejoin:round;stroke-miterlimit:10;" d="
					M290.972,309.862c1.458,0,2.803-0.473,3.902-1.266c-0.026-2.135-1.76-3.859-3.902-3.859c-2.141,0-3.876,1.724-3.902,3.859
					C288.169,309.389,289.514,309.862,290.972,309.862z"/>
			</g>
			<g>
				<line style="fill:none;stroke:#263238;stroke-miterlimit:10;" x1="302.385" y1="297.624" x2="325.079" y2="297.624"/>
				<line style="fill:none;stroke:#263238;stroke-miterlimit:10;" x1="302.857" y1="304.085" x2="349.665" y2="304.085"/>
				<line style="fill:none;stroke:#263238;stroke-miterlimit:10;" x1="302.857" y1="308.183" x2="349.665" y2="308.183"/>
			</g>
		</g>
		<g>
			<g>
				
					<circle style="fill:#263238;stroke:#263238;stroke-linecap:round;stroke-linejoin:round;stroke-miterlimit:10;" cx="290.972" cy="338.96" r="6.678"/>
				
					<circle style="fill:#FFFFFF;stroke:#263238;stroke-linecap:round;stroke-linejoin:round;stroke-miterlimit:10;" cx="290.972" cy="337.012" r="2.783"/>
				<path style="fill:#FFFFFF;stroke:#263238;stroke-linecap:round;stroke-linejoin:round;stroke-miterlimit:10;" d="
					M290.972,345.638c1.458,0,2.803-0.473,3.902-1.266c-0.026-2.135-1.76-3.859-3.902-3.859c-2.141,0-3.876,1.724-3.902,3.859
					C288.169,345.165,289.514,345.638,290.972,345.638z"/>
			</g>
			<g>
				<line style="fill:none;stroke:#263238;stroke-miterlimit:10;" x1="302.385" y1="333.399" x2="325.079" y2="333.399"/>
				<line style="fill:none;stroke:#263238;stroke-miterlimit:10;" x1="302.857" y1="339.861" x2="349.665" y2="339.861"/>
				<line style="fill:none;stroke:#263238;stroke-miterlimit:10;" x1="302.857" y1="343.958" x2="349.665" y2="343.958"/>
			</g>
		</g>
	</g>
</g>
<g id="Tab_1">
	<g>
		<g>
			<g>
				<path style="fill:#263238;stroke:#263238;stroke-linecap:round;stroke-linejoin:round;stroke-miterlimit:10;" d="
					M249.027,303.043H124.532c-1.907,0-3.453-1.546-3.453-3.453v-68.488c0-1.137,0.922-2.059,2.059-2.059h127.283
					c1.137,0,2.059,0.922,2.059,2.059v68.488C252.48,301.497,250.934,303.043,249.027,303.043z"/>
				<path style="fill:#263238;stroke:#263238;stroke-linecap:round;stroke-linejoin:round;stroke-miterlimit:10;" d="
					M252.48,241.114h-131.4v-10.011c0-1.137,0.922-2.059,2.059-2.059h127.283c1.137,0,2.059,0.922,2.059,2.059V241.114z"/>
				
					<circle style="fill:#263238;stroke:#263238;stroke-linecap:round;stroke-linejoin:round;stroke-miterlimit:10;" cx="225.578" cy="235.258" r="2.673"/>
				
					<circle style="fill:#263238;stroke:#263238;stroke-linecap:round;stroke-linejoin:round;stroke-miterlimit:10;" cx="234.043" cy="235.258" r="2.673"/>
				
					<circle style="fill:#263238;stroke:#263238;stroke-linecap:round;stroke-linejoin:round;stroke-miterlimit:10;" cx="242.508" cy="235.258" r="2.673"/>
			</g>
			<rect x="135.175" y="252.648" style="fill:#263238;stroke:#263238;stroke-miterlimit:10;" width="26.983" height="25.784"/>
			<line style="fill:#263238;stroke:#263238;stroke-miterlimit:10;" x1="171.152" y1="255.646" x2="241.908" y2="255.646"/>
			<line style="fill:#263238;stroke:#263238;stroke-miterlimit:10;" x1="171.152" y1="264.04" x2="241.908" y2="264.04"/>
			<line style="fill:#263238;stroke:#263238;stroke-miterlimit:10;" x1="171.152" y1="272.435" x2="241.908" y2="272.435"/>
			<line style="fill:#263238;stroke:#263238;stroke-miterlimit:10;" x1="171.152" y1="280.83" x2="241.908" y2="280.83"/>
		</g>
		<g>
			<g>
				<path style="fill:#FFFFFF;stroke:#263238;stroke-linecap:round;stroke-linejoin:round;stroke-miterlimit:10;" d="
					M245.859,298.292H121.365c-1.907,0-3.453-1.546-3.453-3.453v-68.488c0-1.137,0.922-2.059,2.059-2.059h127.283
					c1.137,0,2.059,0.922,2.059,2.059v68.488C249.313,296.746,247.766,298.292,245.859,298.292z"/>
				<path style="fill:#92E3A9;stroke:#263238;stroke-linecap:round;stroke-linejoin:round;stroke-miterlimit:10;" d="
					M249.313,236.363h-131.4v-10.011c0-1.137,0.922-2.059,2.059-2.059h127.283c1.137,0,2.059,0.922,2.059,2.059V236.363z"/>
				
					<circle style="fill:#FFFFFF;stroke:#263238;stroke-linecap:round;stroke-linejoin:round;stroke-miterlimit:10;" cx="222.41" cy="230.508" r="2.673"/>
				
					<circle style="fill:#FFFFFF;stroke:#263238;stroke-linecap:round;stroke-linejoin:round;stroke-miterlimit:10;" cx="230.876" cy="230.508" r="2.673"/>
				
					<circle style="fill:#FFFFFF;stroke:#263238;stroke-linecap:round;stroke-linejoin:round;stroke-miterlimit:10;" cx="239.341" cy="230.508" r="2.673"/>
			</g>
			<rect x="132.008" y="247.897" style="fill:none;stroke:#263238;stroke-miterlimit:10;" width="26.983" height="25.784"/>
			<line style="fill:none;stroke:#263238;stroke-miterlimit:10;" x1="167.985" y1="250.895" x2="238.741" y2="250.895"/>
			<line style="fill:none;stroke:#263238;stroke-miterlimit:10;" x1="167.985" y1="259.29" x2="238.741" y2="259.29"/>
			<line style="fill:none;stroke:#263238;stroke-miterlimit:10;" x1="167.985" y1="267.684" x2="238.741" y2="267.684"/>
			<line style="fill:none;stroke:#263238;stroke-miterlimit:10;" x1="167.985" y1="276.079" x2="238.741" y2="276.079"/>
		</g>
	</g>
</g>
<g id="Chart_3">
	<g>
		<path style="fill:#263238;stroke:#263238;stroke-linecap:round;stroke-linejoin:round;stroke-miterlimit:10;" d="M364.817,262.48
			H273.74c-2.414,0-4.372-1.957-4.372-4.372v-79.011c0-2.414,1.957-4.371,4.372-4.371h91.077c2.414,0,4.372,1.957,4.372,4.371
			v79.011C369.188,260.523,367.231,262.48,364.817,262.48z"/>
		<path style="fill:#FFFFFF;stroke:#263238;stroke-linecap:round;stroke-linejoin:round;stroke-miterlimit:10;" d="M361.65,257.729
			h-91.077c-2.414,0-4.371-1.957-4.371-4.372v-79.011c0-2.414,1.957-4.372,4.371-4.372h91.077c2.414,0,4.372,1.957,4.372,4.372
			v79.011C366.021,255.772,364.064,257.729,361.65,257.729z"/>
		<g>
			<g>
				
					<rect x="278.907" y="205.111" style="fill:#263238;stroke:#263238;stroke-linecap:round;stroke-linejoin:round;stroke-miterlimit:10;" width="9.205" height="42.574"/>
				
					<rect x="291.948" y="212.015" style="fill:#92E3A9;stroke:#263238;stroke-linecap:round;stroke-linejoin:round;stroke-miterlimit:10;" width="9.205" height="35.67"/>
				
					<rect x="304.988" y="217.768" style="fill:#FFFFFF;stroke:#263238;stroke-linecap:round;stroke-linejoin:round;stroke-miterlimit:10;" width="9.205" height="29.917"/>
				
					<rect x="318.029" y="200.125" style="fill:#263238;stroke:#263238;stroke-linecap:round;stroke-linejoin:round;stroke-miterlimit:10;" width="9.205" height="47.56"/>
				
					<rect x="331.07" y="205.878" style="fill:#92E3A9;stroke:#263238;stroke-linecap:round;stroke-linejoin:round;stroke-miterlimit:10;" width="9.205" height="41.807"/>
				
					<rect x="344.11" y="185.934" style="fill:#FFFFFF;stroke:#263238;stroke-linecap:round;stroke-linejoin:round;stroke-miterlimit:10;" width="9.205" height="61.751"/>
			</g>
			<g>
				<g>
					<line style="fill:none;stroke:#263238;stroke-miterlimit:10;" x1="279.53" y1="181.495" x2="288.736" y2="181.495"/>
					<line style="fill:none;stroke:#263238;stroke-miterlimit:10;" x1="279.53" y1="185.331" x2="288.736" y2="185.331"/>
					<line style="fill:none;stroke:#263238;stroke-miterlimit:10;" x1="279.53" y1="189.167" x2="288.736" y2="189.167"/>
				</g>
				<g>
					<line style="fill:none;stroke:#263238;stroke-miterlimit:10;" x1="291.804" y1="181.495" x2="329.008" y2="181.495"/>
					<line style="fill:none;stroke:#263238;stroke-miterlimit:10;" x1="291.804" y1="185.331" x2="329.008" y2="185.331"/>
					<line style="fill:none;stroke:#263238;stroke-miterlimit:10;" x1="291.804" y1="189.167" x2="329.008" y2="189.167"/>
				</g>
			</g>
		</g>
	</g>
</g>
<g id="Chart_2">
	<g>
		<path style="fill:#263238;stroke:#263238;stroke-linecap:round;stroke-linejoin:round;stroke-miterlimit:10;" d="M364.817,158.51
			H273.74c-2.414,0-4.372-1.957-4.372-4.372V75.127c0-2.414,1.957-4.371,4.372-4.371h91.077c2.414,0,4.372,1.957,4.372,4.371v79.011
			C369.188,156.553,367.231,158.51,364.817,158.51z"/>
		<path style="fill:#FFFFFF;stroke:#263238;stroke-linecap:round;stroke-linejoin:round;stroke-miterlimit:10;" d="M361.65,153.76
			h-91.077c-2.414,0-4.371-1.957-4.371-4.372V70.377c0-2.414,1.957-4.372,4.371-4.372h91.077c2.414,0,4.372,1.957,4.372,4.372
			v79.011C366.021,151.802,364.064,153.76,361.65,153.76z"/>
		<g>
			<g>
				
					<circle style="fill:#FFFFFF;stroke:#263238;stroke-linecap:round;stroke-linejoin:round;stroke-miterlimit:10;" cx="313.666" cy="108.073" r="27.999"/>
				<path style="fill:#263238;stroke:#263238;stroke-linecap:round;stroke-linejoin:round;stroke-miterlimit:10;" d="
					M340.842,101.325c-1.183-4.782-3.641-9.313-7.378-13.05c-10.934-10.934-28.662-10.934-39.597,0l19.798,19.798L340.842,101.325z"
					/>
				<path style="fill:#92E3A9;stroke:#263238;stroke-linecap:round;stroke-linejoin:round;stroke-miterlimit:10;" d="
					M340.842,101.325l-27.176,6.748l-8.085,26.809c9.553,2.872,20.336,0.536,27.884-7.011
					C340.662,120.674,343.12,110.534,340.842,101.325L340.842,101.325z"/>
			</g>
			<polyline style="fill:none;stroke:#263238;stroke-miterlimit:10;" points="324.789,90.43 333.994,78.54 339.747,78.54 			"/>
			<g>
				<line style="fill:none;stroke:#263238;stroke-miterlimit:10;" x1="345.117" y1="78.924" x2="354.322" y2="78.924"/>
				<line style="fill:none;stroke:#263238;stroke-miterlimit:10;" x1="345.117" y1="82.759" x2="354.322" y2="82.759"/>
				<line style="fill:none;stroke:#263238;stroke-miterlimit:10;" x1="345.117" y1="86.594" x2="354.322" y2="86.594"/>
			</g>
			<g>
				<line style="fill:none;stroke:#263238;stroke-miterlimit:10;" x1="345.117" y1="128.785" x2="354.322" y2="128.785"/>
				<line style="fill:none;stroke:#263238;stroke-miterlimit:10;" x1="345.117" y1="132.62" x2="354.322" y2="132.62"/>
				<line style="fill:none;stroke:#263238;stroke-miterlimit:10;" x1="345.117" y1="136.456" x2="354.322" y2="136.456"/>
			</g>
			<g>
				<line style="fill:none;stroke:#263238;stroke-miterlimit:10;" x1="273.777" y1="128.018" x2="282.982" y2="128.018"/>
				<line style="fill:none;stroke:#263238;stroke-miterlimit:10;" x1="273.777" y1="131.853" x2="282.982" y2="131.853"/>
				<line style="fill:none;stroke:#263238;stroke-miterlimit:10;" x1="273.777" y1="135.689" x2="282.982" y2="135.689"/>
			</g>
			<polyline style="fill:none;stroke:#263238;stroke-miterlimit:10;" points="297.941,126.867 294.489,135.689 285.284,135.689 			
				"/>
			<polyline style="fill:none;stroke:#263238;stroke-miterlimit:10;" points="335.145,116.128 350.487,116.128 350.487,121.114 			
				"/>
		</g>
	</g>
</g>
<g id="Chart_1">
	<g>
		<path style="fill:#263238;stroke:#263238;stroke-linecap:round;stroke-linejoin:round;stroke-miterlimit:10;" d="M245.059,158.837
			h-91.077c-2.414,0-4.372-1.957-4.372-4.372V75.454c0-2.414,1.957-4.372,4.372-4.372h91.077c2.414,0,4.372,1.957,4.372,4.372
			v79.011C249.43,156.88,247.473,158.837,245.059,158.837z"/>
		<path style="fill:#FFFFFF;stroke:#263238;stroke-linecap:round;stroke-linejoin:round;stroke-miterlimit:10;" d="M240.827,153.76
			h-91.077c-2.414,0-4.372-1.957-4.372-4.372V70.377c0-2.414,1.957-4.372,4.372-4.372h91.077c2.414,0,4.372,1.957,4.372,4.372
			v79.011C245.199,151.802,243.242,153.76,240.827,153.76z"/>
		<g>
			<g>
				<line style="fill:none;stroke:#263238;stroke-miterlimit:10;" x1="155.738" y1="137.145" x2="155.738" y2="140.533"/>
				<line style="fill:none;stroke:#263238;stroke-miterlimit:10;" x1="163.868" y1="137.145" x2="163.868" y2="140.533"/>
				<line style="fill:none;stroke:#263238;stroke-miterlimit:10;" x1="171.998" y1="137.145" x2="171.998" y2="140.533"/>
				<line style="fill:none;stroke:#263238;stroke-miterlimit:10;" x1="180.128" y1="137.145" x2="180.128" y2="140.533"/>
				<line style="fill:none;stroke:#263238;stroke-miterlimit:10;" x1="188.257" y1="137.145" x2="188.257" y2="140.533"/>
				<line style="fill:none;stroke:#263238;stroke-miterlimit:10;" x1="196.387" y1="137.145" x2="196.387" y2="140.533"/>
				<line style="fill:none;stroke:#263238;stroke-miterlimit:10;" x1="204.517" y1="137.145" x2="204.517" y2="140.533"/>
				<line style="fill:none;stroke:#263238;stroke-miterlimit:10;" x1="212.646" y1="137.145" x2="212.646" y2="140.533"/>
				<line style="fill:none;stroke:#263238;stroke-miterlimit:10;" x1="220.776" y1="137.145" x2="220.776" y2="140.533"/>
				<line style="fill:none;stroke:#263238;stroke-miterlimit:10;" x1="228.906" y1="137.145" x2="228.906" y2="140.533"/>
				<line style="fill:none;stroke:#263238;stroke-miterlimit:10;" x1="237.035" y1="137.145" x2="237.035" y2="140.533"/>
			</g>
			<polygon style="fill:#92E3A9;stroke:#263238;stroke-linecap:round;stroke-linejoin:round;stroke-miterlimit:10;" points="
				233.648,89.722 224.841,94.465 217.727,80.238 208.581,92.093 200.452,84.98 192.661,76.173 184.531,85.657 176.402,108.691 
				167.594,100.223 158.787,106.659 158.787,127.999 233.648,127.999 			"/>
			<g>
				<g>
					<line style="fill:none;stroke:#263238;stroke-miterlimit:10;" x1="158.99" y1="75.982" x2="168.195" y2="75.982"/>
					<line style="fill:none;stroke:#263238;stroke-miterlimit:10;" x1="158.99" y1="79.818" x2="168.195" y2="79.818"/>
					<line style="fill:none;stroke:#263238;stroke-miterlimit:10;" x1="158.99" y1="83.653" x2="168.195" y2="83.653"/>
				</g>
			</g>
			<polygon style="fill:#263238;stroke:#263238;stroke-linecap:round;stroke-linejoin:round;stroke-miterlimit:10;" points="
				233.648,108.478 224.841,111.74 217.727,95.916 208.581,106.998 200.452,104.288 192.661,121.225 184.531,98.529 
				176.402,121.225 167.594,112.756 158.787,123.935 158.787,132.064 233.648,132.064 			"/>
		</g>
	</g>
</g>
<g id="Character_2">
	<g>
		<path style="fill:#263238;stroke:#263238;stroke-linecap:round;stroke-linejoin:round;stroke-miterlimit:10;" d="M413.003,114.541
			c0,0-3.321-8.777-12.809-7.828c-9.488,0.949-13.758,8.539-12.098,13.521c1.66,4.981,2.609,6.642,2.609,6.642
			s-3.084-1.423-2.135,3.558c0.949,4.981,8.065,4.033,9.251,3.558C399.008,133.518,404.227,120.234,413.003,114.541z"/>
		<path style="fill:#263238;stroke:#263238;stroke-linecap:round;stroke-linejoin:round;stroke-miterlimit:10;" d="M352.583,199.665
			l-16.84,8.42c-1.342,0.671-1.388,2.569-0.08,3.304l44.931,25.273c0.777,0.437,1.755,0.265,2.336-0.411l10.55-12.276
			c0.773-0.899,0.525-2.281-0.512-2.856l-38.64-21.418C353.787,199.403,353.134,199.389,352.583,199.665z"/>
		<g>
			<path style="fill:#FFFFFF;stroke:#263238;stroke-linecap:round;stroke-linejoin:round;stroke-miterlimit:10;" d="
				M393.646,214.836l-7.087-4.595c0,0-5.305-5.948-7.302-6.958c-1.997-1.009-15.355,1.397-15.355,1.397l29.38,16.62L393.646,214.836
				z"/>
			<path style="fill:#FFFFFF;stroke:#263238;stroke-linecap:round;stroke-linejoin:round;stroke-miterlimit:10;" d="
				M379.171,207.578c0,0-5.219,0.237-8.44-1.138c-3.222-1.374-5.068-0.73-3.393,1.976c1.675,2.706,6.894,2.469,6.894,2.469
				s4.553,5.541,10.072,3.371"/>
		</g>
		<g>
			<g>
				<path style="fill:#FFFFFF;stroke:#263238;stroke-linecap:round;stroke-linejoin:round;stroke-miterlimit:10;" d="
					M451.001,446.429c0,0,2.976,11.409,2.728,13.393c-0.248,1.984-6.449,3.72-9.921,3.72c-3.472,0-10.417,1.24-10.417,1.24
					l0.248-18.354H451.001z"/>
				<path style="fill:#FFFFFF;stroke:#263238;stroke-linecap:round;stroke-linejoin:round;stroke-miterlimit:10;" d="
					M453.729,459.822c0.063-0.5-0.08-1.599-0.328-2.962c-2.049,1.089-4.859,2.425-7.609,3.21
					c-4.218,1.205-10.222,1.272-12.354,1.253l-0.047,3.459c0,0,6.945-1.24,10.417-1.24
					C447.281,463.542,453.481,461.806,453.729,459.822z"/>
			</g>
			<path style="fill:#999999;stroke:#263238;stroke-linecap:round;stroke-linejoin:round;stroke-miterlimit:10;" d="
				M429.919,336.804c0,0,3.224,27.034,4.464,32.243c1.24,5.208,7.441,14.137,9.921,28.026c2.48,13.889,7.193,46.132,7.193,46.876
				c0,0.744,0.496,2.976,0.744,4.464c0,0-5.456,2.232-9.425,1.736c-3.968-0.496-7.441-1.488-7.441-1.488s1.736-10.665-1.984-29.762
				s-7.441-38.939-9.673-52.828S429.919,336.804,429.919,336.804z"/>
		</g>
		<g>
			<path style="fill:#FFFFFF;stroke:#263238;stroke-linecap:round;stroke-linejoin:round;stroke-miterlimit:10;" d="M417.27,443.453
				c0,0-1.488,2.48-5.704,6.201c-4.216,3.72-12.153,7.689-14.385,8.681c-2.232,0.992-3.968,0.992-3.472,3.224
				c0.496,2.232,4.216,3.968,15.377,3.968c11.161,0,23.066-0.496,24.306-0.744c1.24-0.248,4.96-0.248,4.96-2.976
				c0-2.728-1.24-13.641-1.24-13.641L417.27,443.453z"/>
			<path style="fill:#FFFFFF;stroke:#263238;stroke-linecap:round;stroke-linejoin:round;stroke-miterlimit:10;" d="
				M433.392,464.783c1.24-0.248,4.96-0.248,4.96-2.976c0-0.401-0.027-0.982-0.073-1.675c-4.245,0.554-13.87,1.747-24.729,2.668
				c-9.559,0.81-16.345-0.811-19.916-2.035c-0.012,0.231,0.006,0.488,0.074,0.795c0.496,2.232,4.216,3.968,15.377,3.968
				C420.247,465.526,432.152,465.03,433.392,464.783z"/>
		</g>
		<path style="fill:#BDBDBD;stroke:#263238;stroke-linecap:round;stroke-linejoin:round;stroke-miterlimit:10;" d="M390.98,279.76
			c0,0-0.248,19.594,2.48,41.667c2.728,22.074,10.665,48.86,10.665,48.86s3.968,21.578,5.208,29.018
			c1.24,7.441,7.689,36.707,7.689,36.707l-2.728,3.72l0.496,6.448c0,0,2.232,0.496,9.921,2.232
			c7.689,1.736,12.401,1.488,12.401,1.488s0.496-12.897,0.248-14.633c-0.248-1.736-1.736-9.921-1.984-12.649
			c-0.248-2.728,0.496-32.987-1.24-39.931c-1.736-6.945-4.712-17.113-4.712-26.042c0-8.929,6.697-52.58,6.697-52.58
			s7.193-10.169,7.193-16.121c0-5.953-0.744-8.929-0.744-8.929L390.98,279.76z"/>
		<path style="fill:none;stroke:#263238;stroke-width:0.75;stroke-linecap:round;stroke-linejoin:round;stroke-miterlimit:10;" d="
			M426.143,427.61c0.553,5.48,0.796,9.127,0.796,9.127s-1.594,0.797-0.797,3.587c0.797,2.79,1.196,4.783,1.196,4.783"/>
		<path style="fill:none;stroke:#263238;stroke-width:0.75;stroke-linecap:round;stroke-linejoin:round;stroke-miterlimit:10;" d="
			M410.12,307.974c-0.615,9.895-0.74,23.389,1.275,37.494c3.986,27.899,10.761,53.008,12.754,66.16
			c0.6,3.961,1.092,7.813,1.486,11.263"/>
		<path style="fill:none;stroke:#263238;stroke-width:0.75;stroke-linecap:round;stroke-linejoin:round;stroke-miterlimit:10;" d="
			M411.794,292.062c0,0-0.754,4.387-1.352,11.511"/>
		<g>
			<path style="fill:#263238;stroke:#263238;stroke-linecap:round;stroke-linejoin:round;stroke-miterlimit:10;" d="
				M438.859,122.606c0,0,3.084-12.335,21.586-10.912c18.502,1.423,18.265,18.265,18.265,18.265l-4.033-1.898
				c0,0,3.321,9.726-0.474,16.842c-3.795,7.116-13.521,11.149-19.926,9.963s-13.284-7.116-14.233-10.437
				C439.096,141.109,442.654,129.485,438.859,122.606z"/>
			<path style="fill:#FFFFFF;stroke:#263238;stroke-linecap:round;stroke-linejoin:round;stroke-miterlimit:10;" d="
				M402.092,121.183c0,0-1.423,2.372-4.27,7.354c-2.846,4.981-1.66,9.488-3.558,11.86c-1.898,2.372-7.116,2.135-6.405,4.507
				c0.712,2.372,3.795,4.033,3.795,4.033s0,13.284,1.423,14.944c1.423,1.66,12.335-1.186,12.335-1.186s2.135,3.321,0.712,10.674
				c-1.423,7.354-14.232,27.753-15.893,37.953c-1.66,10.2,4.032,35.581,4.032,35.581l-5.456,37.004c0,0,13.758,5.219,30.125,3.795
				c16.367-1.423,26.33-4.744,26.33-4.744l-10.912-42.935c0,0,0.949-30.363-1.186-47.204c-2.135-16.842-7.591-20.874-7.591-27.042
				c0-6.167,7.828-9.488,12.809-15.419c2.268-2.7,8.302-13.047,2.372-25.856c-3.887-8.395-16.367-11.623-24.907-11.86
				C407.31,112.406,402.092,121.183,402.092,121.183z"/>
			<path style="fill:#263238;stroke:#263238;stroke-linecap:round;stroke-linejoin:round;stroke-miterlimit:10;" d="
				M405.413,162.694l5.201-1.166l-3.242,6.484C407.371,168.013,406.696,164.671,405.413,162.694z"/>
			<path style="fill:#92E3A9;stroke:#263238;stroke-linecap:round;stroke-linejoin:round;stroke-miterlimit:10;" d="
				M445.264,282.959l-10.912-42.935c0,0,0.949-30.363-1.186-47.204c-0.568-4.48-1.371-8.047-2.244-10.995
				c-3.489-2.718-8.875-6.137-14.361-6.559c-6.368-0.49-12.735,6.887-16.086,11.534c-4.172,8.481-9.241,18.361-10.244,24.522
				c-1.66,10.2,4.033,35.581,4.033,35.581l-5.456,37.004c0,0,13.758,5.219,30.125,3.795
				C435.301,286.28,445.264,282.959,445.264,282.959z"/>
			<path style="fill:#263238;stroke:#263238;stroke-linecap:round;stroke-linejoin:round;stroke-miterlimit:10;" d="M415.85,112.644
				c-8.539-0.237-13.758,8.539-13.758,8.539s-0.744,1.24-2.223,3.795c1.48-1.758,6.862-7.532,9.102-1.423
				c1.307,3.563-1.898,8.54-0.237,10.2c1.661,1.66,4.981,5.456,4.507,6.167c-0.474,0.712-0.712,2.372-0.712,2.372
				s4.27-6.167,7.591-2.372c3.321,3.795-1.186,10.912-1.186,10.912l-2.846,0.949c0,0,9.251,10.437,10.911,10.437
				c0.457,0,1.657-3.563,3.795-4.27c2.457-2.328,4.52-3.935,7.591-7.591c2.268-2.7,8.302-13.046,2.372-25.856
				C436.87,116.109,424.389,112.881,415.85,112.644z"/>
			<path style="fill:#263238;" d="M399.699,139.765c-0.26,1.217-0.887,2.115-1.399,2.005c-0.512-0.11-0.717-1.185-0.457-2.402
				c0.26-1.217,0.887-2.115,1.399-2.005C399.754,137.473,399.959,138.548,399.699,139.765z"/>
			<path style="fill:none;stroke:#263238;stroke-linecap:round;stroke-linejoin:round;stroke-miterlimit:10;" d="M397.822,133.992
				c0,0,2.609-2.846,4.27,0.712"/>
			<path style="fill:none;stroke:#263238;stroke-linecap:round;stroke-linejoin:round;stroke-miterlimit:10;" d="M393.552,151.783
				c0,0,0.474,0.949,3.084,0"/>
		</g>
		<g>
			<path style="fill:#92E3A9;stroke:#263238;stroke-linecap:round;stroke-linejoin:round;stroke-miterlimit:10;" d="
				M409.208,188.076c0,0-3.558,4.981-4.981,14.232c-1.423,9.251-0.237,39.376-0.237,39.376s-20.163-5.693-26.805-9.014
				c-6.642-3.321-8.777-4.744-8.777-4.744s-2.135-4.981-3.795-6.879c-1.661-1.898-6.167-2.372-7.828-3.558
				c-1.66-1.186-2.846-4.981-4.981-3.558c-2.135,1.423-1.186,3.321-0.237,4.033c0.949,0.712,4.507,4.27,4.507,4.27l-9.014-4.033
				c0,0-0.712,3.558,0.474,4.744c1.186,1.186,3.558,3.321,3.558,3.321s3.558,4.981,5.693,6.167c2.135,1.186,5.93,2.135,6.642,2.372
				c2.127,0.71,4.263,2.521,6.162,3.674c4.032,2.45,8.057,4.911,12.095,7.351c6.114,3.694,12.908,6.897,19.773,9.309
				c4.319,1.518,14.89,6.158,18.641,1.506c1.618-2.014,1.123-7.971,1.544-10.497c2.65-15.908,6.069-31.917,6.069-48.111"/>
			<path style="fill:#FFFFFF;stroke:#263238;stroke-linecap:round;stroke-linejoin:round;stroke-miterlimit:10;" d="M396.8,239.569
				c-6.469-1.96-15.559-4.87-19.615-6.898c-6.642-3.321-8.777-4.744-8.777-4.744s-2.135-4.981-3.795-6.879
				c-1.661-1.898-6.167-2.372-7.828-3.558c-1.66-1.186-2.846-4.981-4.981-3.558c-2.135,1.423-1.186,3.321-0.237,4.033
				c0.949,0.712,4.507,4.27,4.507,4.27l-9.014-4.033c0,0-0.712,3.558,0.474,4.744c1.186,1.186,3.558,3.321,3.558,3.321
				s3.558,4.981,5.693,6.167c2.135,1.186,5.93,2.135,6.642,2.372c2.127,0.71,4.263,2.521,6.162,3.674
				c4.032,2.45,8.057,4.911,12.095,7.351c3.813,2.304,7.891,4.416,12.085,6.266L396.8,239.569z"/>
			<polyline style="fill:none;stroke:#263238;stroke-linecap:round;stroke-linejoin:round;stroke-miterlimit:10;" points="
				410.868,248.564 403.99,241.684 405.887,248.089 			"/>
		</g>
	</g>
</g>
<g id="Character_1">
	<g>
		<path style="fill:#263238;stroke:#263238;stroke-linecap:round;stroke-linejoin:round;stroke-miterlimit:10;" d="M108.09,345
			c0,0-4.286,25.719-9.892,49.459c-5.605,23.74-3.957,56.713-3.957,56.713s-2.967,6.265-0.33,9.233
			c2.638,2.967,6.924,1.978,7.913,1.978c0.989,0,7.913-0.33,7.913-0.33s5.276-31.324,7.254-59.681
			c1.978-28.357,0.33-71.551-1.649-69.903c-1.978,1.649-6.265,10.222-6.265,10.222L108.09,345z"/>
		<path style="fill:#263238;stroke:#263238;stroke-linecap:round;stroke-linejoin:round;stroke-miterlimit:10;" d="M94.571,261.579
			c0,0-3.957,23.081-2.968,29.676c0.989,6.595,3.627,14.838,3.627,14.838s8.903,39.568,9.892,42.535
			c0.989,2.968,0,38.249-1.978,53.746c-1.978,15.497,1.319,25.719,1.978,30.665c0.66,4.946,0.33,21.103,0.33,21.103l-0.659,9.232
			c0,0,4.616,1.649,12.859,1.649s25.719,0.989,25.719,0.989s10.551-0.33,9.562-4.946c-0.989-4.616-12.859-6.924-16.157-9.892
			c-3.297-2.967-5.605-5.605-5.605-5.605s0.33-3.297-0.33-4.946c-0.66-1.649-3.297-1.649-2.968-3.957
			c0.33-2.308,5.935-54.735,10.222-68.254c4.286-13.519,7.584-68.913,7.254-78.476c-0.33-9.562-2.308-24.07-2.308-24.07
			L94.571,261.579z"/>
		<g>
			<path style="fill:#D4D4D4;stroke:#263238;stroke-linecap:round;stroke-linejoin:round;stroke-miterlimit:10;" d="M97.999,171.576
				c0,0-9.734,20.686-11.154,34.882c-1.42,14.196,6.287,49.484,6.287,49.484s-3.042,8.923-0.811,10.343
				c2.231,1.42,51.917,4.056,51.917,4.056s3.042-0.406,3.042-3.042s-0.811-4.462-1.217-6.692
				c-0.406-2.231,0.608-47.861-3.853-58.001c-4.462-10.14-13.588-22.511-13.588-22.511L97.999,171.576z"/>
			<path style="fill:none;stroke:#263238;stroke-linecap:round;stroke-linejoin:round;stroke-miterlimit:10;" d="M106.775,255.382
				c5.515-7.265,13.797-18.429,19.673-27.487"/>
			<path style="fill:none;stroke:#263238;stroke-linecap:round;stroke-linejoin:round;stroke-miterlimit:10;" d="M100.94,262.968
				c0,0,1.097-1.398,2.887-3.727"/>
			<path style="fill:none;stroke:#263238;stroke-linecap:round;stroke-linejoin:round;stroke-miterlimit:10;" d="M125.651,223.511
				c0,0-19.131,13.152-21.522,13.949"/>
		</g>
		<g>
			<path style="fill:#FFFFFF;stroke:#263238;stroke-linecap:round;stroke-linejoin:round;stroke-miterlimit:10;" d="
				M139.573,116.008c0,0,3.245-10.748,3.853-13.993c0.608-3.245,2.231-6.287,2.231-6.287v7.909c0,0,2.434-2.839,5.07-6.287
				c2.636-3.448,5.07-3.245,4.056,0.406c-1.014,3.651-3.65,7.707-3.853,8.315s-1.217,5.07-2.434,7.706s-4.259,6.084-4.259,6.084
				L139.573,116.008z"/>
			<path style="fill:#FFFFFF;stroke:#263238;stroke-linecap:round;stroke-linejoin:round;stroke-miterlimit:10;" d="M126.391,124.12
				l13.182-8.112c0,0,3.65-0.406,4.664,3.853c1.014,4.259,0.406,1.825,0.406,1.825l-10.343,14.602L126.391,124.12z"/>
		</g>
		<g>
			<path style="fill:#FFFFFF;stroke:#263238;stroke-linecap:round;stroke-linejoin:round;stroke-miterlimit:10;" d="
				M124.566,118.847c0,0-9.937-10.343-12.371-9.532c-2.434,0.811-1.217,5.07-1.217,5.07s-5.881-2.231-6.084-0.608
				c-0.203,1.622-0.203,1.622-0.203,1.622s-10.546,6.287-13.385,12.979c-2.839,6.692-3.245,13.182,0,16.832
				c3.245,3.65,11.154,16.63,11.154,16.63l0.203,6.287l20.077,5.07l1.825-8.518c0,0,9.532,0,10.343-1.42s1.217-17.035,1.217-17.035
				l4.259-5.273c0,0-7.706-8.923-8.923-11.56C130.245,126.757,127,121.889,124.566,118.847z"/>
			<path style="fill:none;stroke:#263238;stroke-linecap:round;stroke-linejoin:round;stroke-miterlimit:10;" d="M134.899,150.178
				c0,0-0.945,1.261-3.466-1.26"/>
			<path style="fill:#263238;stroke:#263238;stroke-linecap:round;stroke-linejoin:round;stroke-miterlimit:10;" d="
				M124.566,118.847c0,0-9.937-10.343-12.371-9.532c-2.434,0.811-1.217,5.07-1.217,5.07s-5.881-2.231-6.084-0.608
				c-0.203,1.622-0.203,1.622-0.203,1.622s-10.546,6.287-13.385,12.979c-2.839,6.692-3.245,13.182,0,16.832
				c2.508,2.822,7.801,11.214,10.076,14.88c1.387,0.148,2.797,0.16,4.12-0.076c5.678-1.014,9.532-7.504,9.532-7.504
				s-3.853-1.217-4.056-6.287c-0.203-5.07,3.042-6.084,3.042-6.084s2.839,3.245,5.273,1.825c2.434-1.42-3.042-4.056-3.853-6.084
				c-0.811-2.028,1.217-4.867,1.622-6.287s-3.853-1.014-5.476-1.825c-1.622-0.811,7.098-4.867,8.923-6.084
				c1.825-1.217-2.028-0.406-4.259-1.622C114.021,118.847,124.566,118.847,124.566,118.847z"/>
			<path style="fill:#263238;" d="M130.192,134.259c0.394,1.108,0.328,2.143-0.146,2.312s-1.179-0.592-1.573-1.701
				c-0.394-1.108-0.329-2.143,0.146-2.312S129.798,133.15,130.192,134.259z"/>
			<path style="fill:none;stroke:#263238;stroke-linecap:round;stroke-linejoin:round;stroke-miterlimit:10;" d="M125.58,131.015
				c0,0,0.811-5.678,4.462-3.245"/>
			<polyline style="fill:none;stroke:#263238;stroke-linecap:round;stroke-linejoin:round;stroke-miterlimit:10;" points="
				115.035,152.512 118.888,151.498 119.902,154.54 			"/>
		</g>
		<path style="fill:#D4D4D4;stroke:#263238;stroke-linecap:round;stroke-linejoin:round;stroke-miterlimit:10;" d="M97.391,164.275
			c0.608,0,32.245,9.937,32.245,9.937l0.608,9.329l-33.665-10.14L97.391,164.275z"/>
		<g>
			<path style="fill:#D4D4D4;stroke:#263238;stroke-linecap:round;stroke-linejoin:round;stroke-miterlimit:10;" d="
				M103.272,209.094c0,0,37.721,16.427,48.064,17.441c10.343,1.014,57.19-47.658,57.19-47.658l-5.476-7.098
				c0,0-38.329,19.672-42.994,21.294c-4.664,1.622-43.399-10.748-46.239-11.357c-2.839-0.608-9.126,0.406-11.56,3.65"/>
			
				<line style="fill:none;stroke:#263238;stroke-linecap:round;stroke-linejoin:round;stroke-miterlimit:10;" x1="115.44" y1="214.367" x2="100.636" y2="215.583"/>
			
				<line style="fill:none;stroke:#263238;stroke-linecap:round;stroke-linejoin:round;stroke-miterlimit:10;" x1="198.386" y1="175.226" x2="204.47" y2="182.73"/>
			<path style="fill:#FFFFFF;stroke:#263238;stroke-linecap:round;stroke-linejoin:round;stroke-miterlimit:10;" d="M203.05,171.778
				l5.678-7.909c0,0,2.028-6.084,2.434-7.301c0.406-1.217,4.259-3.853,5.476-5.476c1.217-1.622,2.434-5.273,3.65-4.259
				c1.217,1.014,1.014,3.245,0.608,4.259c-0.406,1.014-2.434,3.245-2.636,4.259c-0.203,1.014,12.168-2.231,12.168-2.231
				s2.028,0.608,1.42,2.231c-0.608,1.622-2.636,4.259-2.636,4.259s-2.434,7.706-4.259,9.532c-1.825,1.825-10.343,4.259-10.343,4.259
				l-6.084,5.476L203.05,171.778z"/>
		</g>
	</g>
</g>
</svg>
