<?xml version="1.0" encoding="utf-8"?>
<!-- Generator: Adobe Illustrator 27.5.0, SVG Export Plug-In . SVG Version: 6.00 Build 0)  -->
<svg version="1.1" xmlns="http://www.w3.org/2000/svg" xmlns:xlink="http://www.w3.org/1999/xlink" x="0px" y="0px"
	 viewBox="0 0 500 500" style="enable-background:new 0 0 500 500;" xml:space="preserve">
<g id="Background_Simple">
	<g>
		<path style="fill:#92E3A9;" d="M135.471,442.398c24.21,24.322,81.907,13.764,106.603-2.643
			c80.163-53.258,220.79-142.085,224.188-265.807c1.444-52.587-45.549-79.016-65.1-86.627
			c-46.949-18.277-98.074-22.845-148.445-23.847c-52.614-1.047-108.942,2.181-155.64,28.996
			c-17.688,10.157-34.293,23.032-45.45,40.323c-11.333,17.565-17.59,38.302-18.87,59.109c-2.064,33.563,7.779,66.919,22.165,97.313
			c14.386,30.393,33.262,58.396,50.663,87.17C116.938,395.156,115.074,421.907,135.471,442.398z"/>
		<path style="opacity:0.7;fill:#FFFFFF;" d="M135.471,442.398c24.21,24.322,81.907,13.764,106.603-2.643
			c80.163-53.258,220.79-142.085,224.188-265.807c1.444-52.587-45.549-79.016-65.1-86.627
			c-46.949-18.277-98.074-22.845-148.445-23.847c-52.614-1.047-108.942,2.181-155.64,28.996
			c-17.688,10.157-34.293,23.032-45.45,40.323c-11.333,17.565-17.59,38.302-18.87,59.109c-2.064,33.563,7.779,66.919,22.165,97.313
			c14.386,30.393,33.262,58.396,50.663,87.17C116.938,395.156,115.074,421.907,135.471,442.398z"/>
	</g>
</g>
<g id="Graphics">
	<g>
		<g>
			
				<rect x="50.674" y="55.963" style="fill:none;stroke:#263238;stroke-linecap:round;stroke-linejoin:round;stroke-miterlimit:10;" width="398.652" height="17.194"/>
			<g>
				<path style="fill:none;stroke:#263238;stroke-linecap:round;stroke-linejoin:round;stroke-miterlimit:10;" d="M443.485,68.101
					c-1.956,1.956-5.127,1.956-7.083,0c-1.956-1.956-1.956-5.127,0-7.083s5.127-1.956,7.083,0S445.441,66.146,443.485,68.101z"/>
				
					<line style="fill:none;stroke:#263238;stroke-linecap:round;stroke-linejoin:round;stroke-miterlimit:10;" x1="441.769" y1="62.735" x2="438.119" y2="66.385"/>
				
					<line style="fill:none;stroke:#263238;stroke-linecap:round;stroke-linejoin:round;stroke-miterlimit:10;" x1="441.769" y1="66.385" x2="438.119" y2="62.735"/>
			</g>
			<g>
				<path style="fill:none;stroke:#263238;stroke-linecap:round;stroke-linejoin:round;stroke-miterlimit:10;" d="M429.919,64.56
					c0,2.766-2.242,5.008-5.008,5.008c-2.766,0-5.008-2.242-5.008-5.008c0-2.766,2.242-5.008,5.008-5.008
					C427.677,59.552,429.919,61.794,429.919,64.56z"/>
				<polygon style="fill:none;stroke:#263238;stroke-linecap:round;stroke-linejoin:round;stroke-miterlimit:10;" points="
					424.911,67.141 424.911,61.98 427.491,61.98 427.491,64.56 422.33,64.56 422.33,67.141 				"/>
			</g>
			<g>
				<path style="fill:none;stroke:#263238;stroke-linecap:round;stroke-linejoin:round;stroke-miterlimit:10;" d="M414.886,64.56
					c0,2.766-2.242,5.008-5.008,5.008c-2.766,0-5.008-2.242-5.008-5.008c0-2.766,2.242-5.008,5.008-5.008
					C412.644,59.552,414.886,61.794,414.886,64.56z"/>
				
					<line style="fill:none;stroke:#263238;stroke-linecap:round;stroke-linejoin:round;stroke-miterlimit:10;" x1="412.458" y1="64.56" x2="407.297" y2="64.56"/>
			</g>
		</g>
		<polyline style="fill:none;stroke:#263238;stroke-linecap:round;stroke-linejoin:round;stroke-miterlimit:10;" points="
			50.023,167.23 50.023,77.899 125.038,77.899 		"/>
		<polyline style="fill:none;stroke:#263238;stroke-linecap:round;stroke-linejoin:round;stroke-miterlimit:10;" points="
			449.326,218.517 449.326,77.899 409.878,77.899 		"/>
		
			<line style="fill:none;stroke:#263238;stroke-linecap:round;stroke-linejoin:round;stroke-miterlimit:10;" x1="449.326" y1="228.015" x2="449.326" y2="259.003"/>
		
			<line style="fill:none;stroke:#263238;stroke-linecap:round;stroke-linejoin:round;stroke-miterlimit:10;" x1="449.326" y1="282.586" x2="449.326" y2="294.736"/>
		
			<line style="fill:none;stroke:#263238;stroke-linecap:round;stroke-linejoin:round;stroke-miterlimit:10;" x1="49.97" y1="175.366" x2="49.97" y2="189.613"/>
		
			<line style="fill:none;stroke:#263238;stroke-linecap:round;stroke-linejoin:round;stroke-miterlimit:10;" x1="133.349" y1="77.899" x2="239.88" y2="77.899"/>
		
			<line style="fill:none;stroke:#263238;stroke-linecap:round;stroke-linejoin:round;stroke-miterlimit:10;" x1="273.94" y1="77.899" x2="280.718" y2="77.899"/>
	</g>
</g>
<g id="Folders">
	<g>
		<g>
			<path style="fill:none;stroke:#263238;stroke-linecap:round;stroke-linejoin:round;stroke-miterlimit:10;" d="M362.465,386.905
				h-6.409c-1.975,0-3.831-1.597-4.145-3.566l-1.554-9.743"/>
			<path style="fill:none;stroke:#263238;stroke-linecap:round;stroke-linejoin:round;stroke-miterlimit:10;" d="M385.414,373.596
				l1.554,9.743c0.314,1.97-1.032,3.566-3.007,3.566H365.63"/>
			<path style="fill:none;stroke:#263238;stroke-linecap:round;stroke-linejoin:round;stroke-miterlimit:10;" d="M372.75,360.287
				h6.965c1.975,0,3.831,1.597,4.145,3.566l0.941,5.904"/>
			
				<line style="fill:none;stroke:#263238;stroke-linecap:round;stroke-linejoin:round;stroke-miterlimit:10;" x1="367.885" y1="360.287" x2="370.102" y2="360.287"/>
			<path style="fill:none;stroke:#263238;stroke-linecap:round;stroke-linejoin:round;stroke-miterlimit:10;" d="M349.926,370.892
				l-1.123-7.04c-0.314-1.969,1.032-3.566,3.007-3.566h11.578"/>
			<path style="fill:none;stroke:#263238;stroke-linecap:round;stroke-linejoin:round;stroke-miterlimit:10;" d="M375.783,354.88
				h-2.576c-0.449,0-0.852,0.276-1.015,0.695l-0.859,2.208h-15.278c-1.574,0-2.91,1.017-3.388,2.429"/>
			<path style="fill:none;stroke:#263238;stroke-linecap:round;stroke-linejoin:round;stroke-miterlimit:10;" d="M387.536,361.359
				c0-1.887-1.467-3.417-3.32-3.55l-0.869-2.234c-0.163-0.419-0.566-0.695-1.015-0.695h-4.834"/>
			<path style="fill:none;stroke:#263238;stroke-linecap:round;stroke-linejoin:round;stroke-miterlimit:10;" d="M383.96,386.905
				c1.975,0,3.576-1.601,3.576-3.576v-18.307"/>
		</g>
		<g>
			<path style="fill:none;stroke:#263238;stroke-linecap:round;stroke-linejoin:round;stroke-miterlimit:10;" d="M298.45,377.161
				l-2.122-13.308c-0.314-1.969,1.032-3.566,3.007-3.566h4.596"/>
			<path style="fill:none;stroke:#263238;stroke-linecap:round;stroke-linejoin:round;stroke-miterlimit:10;" d="M319.491,386.905
				h-15.912c-1.975,0-3.831-1.597-4.145-3.566l-0.493-3.088"/>
			
				<line style="fill:none;stroke:#263238;stroke-linecap:round;stroke-linejoin:round;stroke-miterlimit:10;" x1="327.14" y1="386.905" x2="321.865" y2="386.905"/>
			<path style="fill:none;stroke:#263238;stroke-linecap:round;stroke-linejoin:round;stroke-miterlimit:10;" d="M307.964,360.287
				h19.275c1.975,0,3.831,1.597,4.145,3.566l3.108,19.486c0.314,1.97-1.032,3.566-3.007,3.566"/>
			<path style="fill:none;stroke:#263238;stroke-linecap:round;stroke-linejoin:round;stroke-miterlimit:10;" d="M312.502,357.783
				h-8.923c-1.574,0-2.91,1.017-3.388,2.429"/>
			<path style="fill:none;stroke:#263238;stroke-linecap:round;stroke-linejoin:round;stroke-miterlimit:10;" d="M335.061,373.596
				v-12.237c0-1.887-1.467-3.417-3.321-3.55l-0.869-2.234c-0.163-0.419-0.566-0.695-1.015-0.695h-9.124
				c-0.449,0-0.852,0.276-1.015,0.695l-0.859,2.208h-3.448"/>
			<path style="fill:none;stroke:#263238;stroke-linecap:round;stroke-linejoin:round;stroke-miterlimit:10;" d="M331.485,386.905
				c1.975,0,3.576-1.601,3.576-3.576v-7.366"/>
		</g>
		<g>
			<path style="fill:none;stroke:#263238;stroke-linecap:round;stroke-linejoin:round;stroke-miterlimit:10;" d="M309.989,338.712
				h-6.41c-1.975,0-3.831-1.597-4.145-3.566l-1.554-9.743"/>
			<path style="fill:none;stroke:#263238;stroke-linecap:round;stroke-linejoin:round;stroke-miterlimit:10;" d="M332.938,325.404
				l1.554,9.743c0.314,1.97-1.032,3.566-3.007,3.566h-18.331"/>
			<path style="fill:none;stroke:#263238;stroke-linecap:round;stroke-linejoin:round;stroke-miterlimit:10;" d="M320.275,312.095
				h6.965c1.975,0,3.831,1.597,4.145,3.566l0.941,5.904"/>
			
				<line style="fill:none;stroke:#263238;stroke-linecap:round;stroke-linejoin:round;stroke-miterlimit:10;" x1="315.409" y1="312.095" x2="317.626" y2="312.095"/>
			<path style="fill:none;stroke:#263238;stroke-linecap:round;stroke-linejoin:round;stroke-miterlimit:10;" d="M297.45,322.7
				l-1.123-7.039c-0.314-1.97,1.032-3.566,3.007-3.566h11.578"/>
			<path style="fill:none;stroke:#263238;stroke-linecap:round;stroke-linejoin:round;stroke-miterlimit:10;" d="M323.308,306.688
				h-2.576c-0.449,0-0.852,0.276-1.015,0.694l-0.859,2.208h-15.278c-1.574,0-2.91,1.017-3.388,2.429"/>
			<path style="fill:none;stroke:#263238;stroke-linecap:round;stroke-linejoin:round;stroke-miterlimit:10;" d="M335.061,313.167
				c0-1.887-1.467-3.417-3.321-3.55l-0.869-2.234c-0.163-0.419-0.566-0.694-1.015-0.694h-4.834"/>
			<path style="fill:none;stroke:#263238;stroke-linecap:round;stroke-linejoin:round;stroke-miterlimit:10;" d="M331.485,338.712
				c1.975,0,3.576-1.601,3.576-3.576v-18.307"/>
		</g>
		<g>
			<path style="fill:none;stroke:#263238;stroke-linecap:round;stroke-linejoin:round;stroke-miterlimit:10;" d="M350.925,328.969
				l-2.122-13.308c-0.314-1.97,1.032-3.566,3.007-3.566h4.596"/>
			<path style="fill:none;stroke:#263238;stroke-linecap:round;stroke-linejoin:round;stroke-miterlimit:10;" d="M371.967,338.712
				h-15.912c-1.975,0-3.831-1.597-4.145-3.566l-0.493-3.088"/>
			
				<line style="fill:none;stroke:#263238;stroke-linecap:round;stroke-linejoin:round;stroke-miterlimit:10;" x1="379.615" y1="338.712" x2="374.341" y2="338.712"/>
			<path style="fill:none;stroke:#263238;stroke-linecap:round;stroke-linejoin:round;stroke-miterlimit:10;" d="M360.44,312.095
				h19.275c1.975,0,3.831,1.597,4.145,3.566l3.108,19.486c0.314,1.97-1.032,3.566-3.007,3.566"/>
			<path style="fill:none;stroke:#263238;stroke-linecap:round;stroke-linejoin:round;stroke-miterlimit:10;" d="M364.978,309.591
				h-8.923c-1.574,0-2.91,1.017-3.388,2.429"/>
			<path style="fill:none;stroke:#263238;stroke-linecap:round;stroke-linejoin:round;stroke-miterlimit:10;" d="M387.536,325.404
				v-12.237c0-1.887-1.467-3.417-3.32-3.55l-0.869-2.234c-0.163-0.419-0.566-0.694-1.015-0.694h-9.124
				c-0.449,0-0.852,0.276-1.015,0.694l-0.859,2.208h-3.448"/>
			<path style="fill:none;stroke:#263238;stroke-linecap:round;stroke-linejoin:round;stroke-miterlimit:10;" d="M383.96,338.712
				c1.975,0,3.576-1.601,3.576-3.576v-7.366"/>
		</g>
		<g>
			<path style="fill:none;stroke:#263238;stroke-linecap:round;stroke-linejoin:round;stroke-miterlimit:10;" d="M91.935,266.685
				H64.03c-1.975,0-3.831-1.597-4.145-3.566l-3.108-19.486c-0.314-1.97,1.032-3.566,3.007-3.566h27.905
				c1.975,0,3.831,1.597,4.145,3.566l3.108,19.486C95.256,265.089,93.91,266.685,91.935,266.685z"/>
			<path style="fill:none;stroke:#263238;stroke-linecap:round;stroke-linejoin:round;stroke-miterlimit:10;" d="M91.935,266.685
				c1.975,0,3.576-1.601,3.576-3.576v-21.97c0-1.887-1.467-3.417-3.321-3.55l-0.869-2.234c-0.163-0.419-0.566-0.694-1.015-0.694
				h-9.124c-0.449,0-0.852,0.276-1.015,0.694l-0.859,2.208H64.03c-1.574,0-2.91,1.017-3.388,2.429"/>
		</g>
		<g>
			
				<circle style="fill:#FFFFFF;stroke:#263238;stroke-linecap:round;stroke-linejoin:round;stroke-miterlimit:10;" cx="298.879" cy="338.564" r="5.319"/>
			<g>
				<path style="fill:#263238;" d="M297.881,336.564c0.614,0,0.752-0.296,0.875-0.636h0.535v5.063h-0.796v-3.862h-0.614V336.564z"/>
			</g>
		</g>
		<g>
			<path style="fill:#FFFFFF;stroke:#263238;stroke-linecap:round;stroke-linejoin:round;stroke-miterlimit:10;" d="M360.44,338.564
				c0,2.938-2.381,5.319-5.319,5.319c-2.938,0-5.319-2.381-5.319-5.319c0-2.938,2.381-5.319,5.319-5.319
				C358.059,333.246,360.44,335.627,360.44,338.564z"/>
			<g>
				<path style="fill:#263238;" d="M355.144,336.593c-0.254,0-0.412,0.138-0.412,0.499v0.543h-0.753v-0.492
					c0-0.811,0.405-1.273,1.187-1.273c0.781,0,1.186,0.463,1.186,1.273c0,0.673-0.245,1.215-0.983,2.003
					c-0.47,0.507-0.6,0.745-0.6,1.013c0,0.036,0,0.072,0.007,0.108h1.504v0.724h-2.3v-0.622c0-0.564,0.203-0.991,0.796-1.613
					c0.607-0.644,0.781-1.041,0.781-1.583C355.556,336.716,355.396,336.593,355.144,336.593z"/>
			</g>
		</g>
		<g>
			<path style="fill:#FFFFFF;stroke:#263238;stroke-linecap:round;stroke-linejoin:round;stroke-miterlimit:10;" d="
				M304.198,386.905c0,2.938-2.381,5.319-5.319,5.319c-2.938,0-5.319-2.381-5.319-5.319c0-2.938,2.381-5.319,5.319-5.319
				C301.817,381.586,304.198,383.967,304.198,386.905z"/>
			<g>
				<path style="fill:#263238;" d="M299.271,385.512c0-0.456-0.159-0.579-0.412-0.579c-0.253,0-0.412,0.138-0.412,0.499v0.325
					h-0.752v-0.274c0-0.81,0.404-1.273,1.186-1.273c0.781,0,1.186,0.463,1.186,1.273v0.13c0,0.543-0.174,0.875-0.557,1.034v0.015
					c0.398,0.174,0.557,0.543,0.557,1.056v0.398c0,0.81-0.405,1.272-1.186,1.272c-0.781,0-1.186-0.463-1.186-1.272v-0.42h0.752
					v0.471c0,0.361,0.159,0.499,0.412,0.499c0.253,0,0.412-0.123,0.412-0.571v-0.398c0-0.47-0.159-0.644-0.52-0.644h-0.268v-0.724
					h0.31c0.297,0,0.478-0.13,0.478-0.535V385.512z"/>
			</g>
		</g>
		<g>
			<path style="fill:#FFFFFF;stroke:#263238;stroke-linecap:round;stroke-linejoin:round;stroke-miterlimit:10;" d="M360.44,386.905
				c0,2.938-2.381,5.319-5.319,5.319c-2.938,0-5.319-2.381-5.319-5.319c0-2.938,2.381-5.319,5.319-5.319
				C358.059,381.586,360.44,383.967,360.44,386.905z"/>
			<g>
				<path style="fill:#263238;" d="M353.791,387.689l1.446-3.421h0.868v3.421h0.376v0.723h-0.376v0.919h-0.796v-0.919h-1.519
					V387.689z M355.31,387.689v-1.873h-0.015l-0.773,1.873H355.31z"/>
			</g>
		</g>
	</g>
</g>
<g id="Icon">
	<g>
		
			<line style="fill:none;stroke:#263238;stroke-linecap:round;stroke-linejoin:round;stroke-miterlimit:10;" x1="393.857" y1="229.658" x2="413.05" y2="229.658"/>
		<polyline style="fill:none;stroke:#263238;stroke-linecap:round;stroke-linejoin:round;stroke-miterlimit:10;" points="
			386.208,242.604 386.208,229.658 390.692,229.658 		"/>
		<polyline style="fill:none;stroke:#263238;stroke-linecap:round;stroke-linejoin:round;stroke-miterlimit:10;" points="
			390.033,272.245 386.208,272.245 386.208,244.951 		"/>
		
			<line style="fill:none;stroke:#263238;stroke-linecap:round;stroke-linejoin:round;stroke-miterlimit:10;" x1="397.022" y1="272.245" x2="392.208" y2="272.245"/>
		<polyline style="fill:none;stroke:#263238;stroke-linecap:round;stroke-linejoin:round;stroke-miterlimit:10;" points="
			422.387,271.56 422.387,272.245 402.033,272.245 		"/>
		
			<line style="fill:none;stroke:#263238;stroke-linecap:round;stroke-linejoin:round;stroke-miterlimit:10;" x1="422.387" y1="238.994" x2="422.387" y2="268.978"/>
		<g>
			<polygon style="fill:#FFFFFF;stroke:#263238;stroke-linecap:round;stroke-linejoin:round;stroke-miterlimit:10;" points="
				428.387,232.994 428.387,266.245 392.208,266.245 392.208,223.658 419.05,223.658 425.328,229.936 			"/>
			<polygon style="fill:#FFFFFF;stroke:#263238;stroke-linecap:round;stroke-linejoin:round;stroke-miterlimit:10;" points="
				428.387,232.994 419.05,232.994 419.05,223.658 425.328,229.936 			"/>
		</g>
		<g>
			
				<line style="fill:none;stroke:#263238;stroke-linecap:round;stroke-linejoin:round;stroke-miterlimit:10;" x1="410.297" y1="240.402" x2="410.297" y2="249.501"/>
			
				<line style="fill:none;stroke:#263238;stroke-linecap:round;stroke-linejoin:round;stroke-miterlimit:10;" x1="414.847" y1="244.951" x2="405.748" y2="244.951"/>
		</g>
	</g>
</g>
<g id="Duplicate">
	<g>
		<g>
			<polygon style="fill:#92E3A9;stroke:#263238;stroke-linecap:round;stroke-linejoin:round;stroke-miterlimit:10;" points="
				171.3,152.36 171.3,206.17 112.75,206.17 112.75,137.25 156.19,137.25 166.35,147.41 			"/>
			<g>
				
					<line style="fill:none;stroke:#263238;stroke-linecap:round;stroke-linejoin:round;stroke-miterlimit:10;" x1="125.77" y1="147.611" x2="163.745" y2="147.611"/>
				
					<line style="fill:none;stroke:#263238;stroke-linecap:round;stroke-linejoin:round;stroke-miterlimit:10;" x1="120.429" y1="154.505" x2="163.745" y2="154.505"/>
				
					<line style="fill:none;stroke:#263238;stroke-linecap:round;stroke-linejoin:round;stroke-miterlimit:10;" x1="120.429" y1="161.399" x2="163.745" y2="161.399"/>
				
					<line style="fill:none;stroke:#263238;stroke-linecap:round;stroke-linejoin:round;stroke-miterlimit:10;" x1="120.429" y1="168.293" x2="163.745" y2="168.293"/>
				
					<line style="fill:none;stroke:#263238;stroke-linecap:round;stroke-linejoin:round;stroke-miterlimit:10;" x1="120.429" y1="175.186" x2="163.745" y2="175.186"/>
				
					<line style="fill:none;stroke:#263238;stroke-linecap:round;stroke-linejoin:round;stroke-miterlimit:10;" x1="120.429" y1="182.08" x2="163.745" y2="182.08"/>
				
					<line style="fill:none;stroke:#263238;stroke-linecap:round;stroke-linejoin:round;stroke-miterlimit:10;" x1="120.429" y1="188.974" x2="163.745" y2="188.974"/>
				
					<line style="fill:none;stroke:#263238;stroke-linecap:round;stroke-linejoin:round;stroke-miterlimit:10;" x1="120.429" y1="195.868" x2="158.404" y2="195.868"/>
			</g>
			<polygon style="fill:#92E3A9;stroke:#263238;stroke-linecap:round;stroke-linejoin:round;stroke-miterlimit:10;" points="
				171.3,152.36 156.19,152.36 156.19,137.25 166.35,147.41 			"/>
		</g>
		<g>
			<polygon style="fill:#92E3A9;stroke:#263238;stroke-linecap:round;stroke-linejoin:round;stroke-miterlimit:10;" points="
				363.085,135.262 363.085,189.072 304.535,189.072 304.535,120.152 347.975,120.152 358.135,130.312 			"/>
			<g>
				
					<line style="fill:none;stroke:#263238;stroke-linecap:round;stroke-linejoin:round;stroke-miterlimit:10;" x1="317.555" y1="130.513" x2="355.53" y2="130.513"/>
				
					<line style="fill:none;stroke:#263238;stroke-linecap:round;stroke-linejoin:round;stroke-miterlimit:10;" x1="312.214" y1="137.407" x2="355.53" y2="137.407"/>
				
					<line style="fill:none;stroke:#263238;stroke-linecap:round;stroke-linejoin:round;stroke-miterlimit:10;" x1="312.214" y1="144.301" x2="355.53" y2="144.301"/>
				
					<line style="fill:none;stroke:#263238;stroke-linecap:round;stroke-linejoin:round;stroke-miterlimit:10;" x1="312.214" y1="151.195" x2="355.53" y2="151.195"/>
				
					<line style="fill:none;stroke:#263238;stroke-linecap:round;stroke-linejoin:round;stroke-miterlimit:10;" x1="312.214" y1="158.089" x2="355.53" y2="158.089"/>
				
					<line style="fill:none;stroke:#263238;stroke-linecap:round;stroke-linejoin:round;stroke-miterlimit:10;" x1="312.214" y1="164.982" x2="355.53" y2="164.982"/>
				
					<line style="fill:none;stroke:#263238;stroke-linecap:round;stroke-linejoin:round;stroke-miterlimit:10;" x1="312.214" y1="171.876" x2="355.53" y2="171.876"/>
				
					<line style="fill:none;stroke:#263238;stroke-linecap:round;stroke-linejoin:round;stroke-miterlimit:10;" x1="312.214" y1="178.77" x2="350.189" y2="178.77"/>
			</g>
			<polygon style="fill:#92E3A9;stroke:#263238;stroke-linecap:round;stroke-linejoin:round;stroke-miterlimit:10;" points="
				363.085,135.262 347.975,135.262 347.975,120.152 358.135,130.312 			"/>
		</g>
		<g>
			<g>
				<polyline style="fill:none;stroke:#263238;stroke-linecap:round;stroke-linejoin:round;" points="369.414,191.727 
					369.414,197.727 363.414,197.727 				"/>
				
					<line style="fill:none;stroke:#263238;stroke-linecap:round;stroke-linejoin:round;stroke-dasharray:11.8418,11.8418;" x1="351.573" y1="197.727" x2="310.126" y2="197.727"/>
				<polyline style="fill:none;stroke:#263238;stroke-linecap:round;stroke-linejoin:round;" points="304.206,197.727 
					298.206,197.727 298.206,191.727 				"/>
				
					<line style="fill:none;stroke:#263238;stroke-linecap:round;stroke-linejoin:round;stroke-dasharray:10.6042,10.6042;" x1="298.206" y1="181.122" x2="298.206" y2="122.799"/>
				<polyline style="fill:none;stroke:#263238;stroke-linecap:round;stroke-linejoin:round;" points="298.206,117.497 
					298.206,111.497 304.206,111.497 				"/>
				
					<line style="fill:none;stroke:#263238;stroke-linecap:round;stroke-linejoin:round;stroke-dasharray:11.8418,11.8418;" x1="316.047" y1="111.497" x2="357.493" y2="111.497"/>
				<polyline style="fill:none;stroke:#263238;stroke-linecap:round;stroke-linejoin:round;" points="363.414,111.497 
					369.414,111.497 369.414,117.497 				"/>
				
					<line style="fill:none;stroke:#263238;stroke-linecap:round;stroke-linejoin:round;stroke-dasharray:10.6042,10.6042;" x1="369.414" y1="128.101" x2="369.414" y2="186.425"/>
			</g>
		</g>
		
			<line style="fill:none;stroke:#263238;stroke-linecap:round;stroke-linejoin:round;stroke-miterlimit:10;stroke-dasharray:12;" x1="178.455" y1="173.326" x2="285.086" y2="156.567"/>
		<polygon style="fill:#263238;" points="287.203,156.068 283.94,154.823 284.717,158.522 		"/>
		<path style="fill:#263238;" d="M179.543,173.326c0,0.601-0.487,1.088-1.088,1.088c-0.601,0-1.088-0.487-1.088-1.088
			c0-0.601,0.487-1.088,1.088-1.088C179.056,172.238,179.543,172.725,179.543,173.326z"/>
		<g>
			
				<ellipse transform="matrix(0.7071 -0.7071 0.7071 0.7071 26.8387 293.0027)" style="fill:#FFFFFF;stroke:#263238;stroke-linecap:round;stroke-linejoin:round;stroke-miterlimit:10;" cx="367.105" cy="114.104" rx="8.83" ry="8.83"/>
			
				<line style="fill:none;stroke:#263238;stroke-linecap:round;stroke-linejoin:round;stroke-miterlimit:10;" x1="367.105" y1="109.555" x2="367.105" y2="118.654"/>
			
				<line style="fill:none;stroke:#263238;stroke-linecap:round;stroke-linejoin:round;stroke-miterlimit:10;" x1="371.654" y1="114.104" x2="362.555" y2="114.104"/>
		</g>
	</g>
</g>
<g id="Character">
	<g>
		<g>
			<g>
				<path style="fill:#FFFFFF;stroke:#263238;stroke-linecap:round;stroke-linejoin:round;stroke-miterlimit:10;" d="
					M219.324,258.46c-1.187,0-3.485-3.235-4.829-5.296c-0.036,4.254,0.049,15.139,1.89,14.438
					C218.671,266.731,221.066,258.46,219.324,258.46z"/>
			</g>
			<path style="fill:#FFFFFF;stroke:#263238;stroke-linecap:round;stroke-linejoin:round;stroke-miterlimit:10;" d="M214.16,288.31
				c-0.64,0.78-1.53,1.45-2.63,2.01c-2.92,1.5-7.32,2.21-12.37,2.02c-20.36-0.78-51.36-16.26-39.19-54.51
				c7.46-23.48,41.42-15.66,50.09-6.72c3.04,3.13,5.57,9.71,7.19,17.43c0.59,2.82-0.59,5.79-0.26,8.8c0.29,2.72,2.12,5.47,2.17,8.18
				C219.33,274.97,217.87,283.78,214.16,288.31z"/>
			<path style="fill:#263238;" d="M211.53,290.32c-2.92,1.5-7.32,2.21-12.37,2.02c1.39-2.39,3.44-5.09,3.44-5.09
				S209.32,288.24,211.53,290.32z"/>
			<path style="fill:#FFFFFF;stroke:#263238;stroke-linecap:round;stroke-linejoin:round;stroke-miterlimit:10;" d="
				M205.345,287.088c0,0-1.846,23.157,1.201,28.381c3.047,5.224-26.337,10.448-38.091,0c0,0,6.715-17.235,6.062-33.887"/>
			<path style="fill:#263238;" d="M210.064,242.879c0,0,9.148-3.874,6.059-16.721c-4.353-18.104-14.148-6.919-17.413-9.616
				c-5.065-4.184-14.801-8.013-22.637-1.395c-7.836,6.618-12.624,7.348-22.637,16.778c-10.012,9.43-10.012,30.572,0,38.938
				c10.012,8.365,12.624,17.156,22.202,19.943s23.858-0.959,26.73-8.227c2.872-7.269,2.872-12.275,2.872-12.275
				S213.547,255.623,210.064,242.879z"/>
			<path style="fill:#FFFFFF;stroke:#263238;stroke-linecap:round;stroke-linejoin:round;stroke-miterlimit:10;" d="
				M209.375,265.407c0,0-2.068-9.033-3.374-9.686c-1.306-0.653-5.333,7.139-5.224,10.262c0.109,3.124,4.353,8.674,6.421,9.98
				c2.068,1.306,2.794-2.394,2.866-2.83"/>
			<path style="fill:none;stroke:#263238;stroke-linecap:round;stroke-linejoin:round;stroke-miterlimit:10;" d="M206.437,260.727
				c0,0-1.632,5.34,0.762,9.686"/>
			<g>
				<path style="opacity:0.2;fill:none;stroke:#FFFFFF;stroke-linecap:round;stroke-linejoin:round;stroke-miterlimit:10;" d="
					M208.733,232.573c-0.246,2.854-0.982,6.288-3.388,8.13"/>
				<path style="opacity:0.2;fill:none;stroke:#FFFFFF;stroke-linecap:round;stroke-linejoin:round;stroke-miterlimit:10;" d="
					M192.714,221.319c3.207-1.446,7.641-3.204,11.186-2.275c4.376,1.146,4.889,7.377,4.926,11.11"/>
				<path style="opacity:0.2;fill:none;stroke:#FFFFFF;stroke-linecap:round;stroke-linejoin:round;stroke-miterlimit:10;" d="
					M199.508,248.595c-0.486,1.582-1.125,3.115-1.915,4.569"/>
				<path style="opacity:0.2;fill:none;stroke:#FFFFFF;stroke-linecap:round;stroke-linejoin:round;stroke-miterlimit:10;" d="
					M183.959,228.703c3.959-1.13,8.926-1.902,12.38,0.93c4.493,3.684,4.805,11.492,3.743,16.702"/>
				<path style="opacity:0.2;fill:none;stroke:#FFFFFF;stroke-linecap:round;stroke-linejoin:round;stroke-miterlimit:10;" d="
					M187.943,243.277c3.444,6.327,3.388,19.234-4.591,22.293"/>
				<path style="opacity:0.2;fill:none;stroke:#FFFFFF;stroke-linecap:round;stroke-linejoin:round;stroke-miterlimit:10;" d="
					M176.626,236.088c3.405-2.064,8.306,2.873,10.076,5.248"/>
				<path style="opacity:0.2;fill:none;stroke:#FFFFFF;stroke-linecap:round;stroke-linejoin:round;stroke-miterlimit:10;" d="
					M185.542,216.679c-1.31-1.53-3.221-2.381-5.224-1.822"/>
				<path style="opacity:0.2;fill:none;stroke:#FFFFFF;stroke-linecap:round;stroke-linejoin:round;stroke-miterlimit:10;" d="
					M188.462,222.543c-0.378-1.403-0.927-2.766-1.64-4.032"/>
				<path style="opacity:0.2;fill:none;stroke:#FFFFFF;stroke-linecap:round;stroke-linejoin:round;stroke-miterlimit:10;" d="
					M178.472,229.786c0,0,0.528-10.311-6.989-7.477"/>
				<path style="opacity:0.2;fill:none;stroke:#FFFFFF;stroke-linecap:round;stroke-linejoin:round;stroke-miterlimit:10;" d="
					M163.096,229.866c-1.516-0.268-3.054,0.113-4.404,0.815"/>
				<path style="opacity:0.2;fill:none;stroke:#FFFFFF;stroke-linecap:round;stroke-linejoin:round;stroke-miterlimit:10;" d="
					M169.374,236.615c-0.821-2.392-2.3-4.84-4.544-6.119"/>
				<path style="opacity:0.2;fill:none;stroke:#FFFFFF;stroke-linecap:round;stroke-linejoin:round;stroke-miterlimit:10;" d="
					M163.446,271.413c1.107,0.788,2.299,1.47,3.554,1.994"/>
				<path style="opacity:0.2;fill:none;stroke:#FFFFFF;stroke-linecap:round;stroke-linejoin:round;stroke-miterlimit:10;" d="
					M159.04,246.761c-1.997,6.398-2.713,18.023,2.616,23.185"/>
				<path style="opacity:0.2;fill:none;stroke:#FFFFFF;stroke-linecap:round;stroke-linejoin:round;stroke-miterlimit:10;" d="
					M169.374,240.429c-4.311-1.947-7.874,0.4-9.63,4.444"/>
			</g>
		</g>
		<path style="fill:#92E3A9;stroke:#263238;stroke-linecap:round;stroke-linejoin:round;stroke-miterlimit:10;" d="M165.807,307.42
			l4.897-14.138c0,0,35.333-4.648,43.786,7.069C222.943,312.068,165.807,307.42,165.807,307.42z"/>
		<g>
			<path style="fill:#FFFFFF;stroke:#263238;stroke-linecap:round;stroke-linejoin:round;stroke-miterlimit:10;" d="
				M102.506,287.088c0,0-3.958-6.544-3.675-8.216c0.283-1.672-0.703-9.485-0.014-13.262c0.721-3.958,3.689-3.11,3.689-3.11
				s1.21-7.625,4.371-7.059c0,0,0.435-9.337,1.565-11.316c1.131-1.979,1.696-3.2,1.696-3.2s2.262-1.04,2.262,2.352
				c0,3.392,0,9.612,0,9.612l2.544-10.177l3.675-5.07c0,0,2.544,2.667,0.424,6.484c-1.565,2.818-0.047,20.354-0.047,20.354
				c3.581-0.848,4.712-4.241,4.712-4.241s1.29-3.593,4.603-4.482c3.313-0.889,0.221,3.069-0.989,8.723
				c-1.21,5.654-8.938,18.092-12.919,20.637"/>
			<path style="fill:#FFFFFF;stroke:#263238;stroke-linecap:round;stroke-linejoin:round;stroke-miterlimit:10;" d="M116.578,280.43
				l-9.833,56.464l30.208-17.66l-6.145,43.619c0,0-38.938,17.966-47.688,19.885c-8.75,1.919-10.938-23.019-9.625-29.581
				s25.461-56.342,28.481-70.39"/>
			<path style="fill:none;stroke:#263238;stroke-linecap:round;stroke-linejoin:round;stroke-miterlimit:10;" d="M83.703,348.345
				c0,0,6.417-5.542,16.917-9.042"/>
			<g>
				<defs>
					<path id="XMLID_950_" d="M147.81,308.33l-1.3,40.68l-0.58,18.15l-29.59,7.43l-7.89,1.98c-16.29-10.99-13.89-39.61-13.89-39.61
						l7.94-5.71l4.76,0.95C107.26,332.2,137.2,310.04,147.81,308.33z"/>
				</defs>
				<use xlink:href="#XMLID_950_"  style="overflow:visible;fill:#92E3A9;"/>
				<clipPath id="XMLID_00000115490154571860858720000015921960417028218020_">
					<use xlink:href="#XMLID_950_"  style="overflow:visible;"/>
				</clipPath>
				<path style="opacity:0.2;clip-path:url(#XMLID_00000115490154571860858720000015921960417028218020_);fill-opacity:0.7;" d="
					M146.51,349.01l-0.58,18.15l-29.59,7.43c-2.61-7.87,2.79-5.71,2.79-5.71c-2.91-4.28-2.77-8.97-2.77-8.97l5.45,2.51
					c-3.29-8.31,2.26-17.65,2.26-17.65l0.97,8.96c-0.97-8.96,9.65-24.15,9.65-24.15S142.52,335.74,146.51,349.01z"/>
				
					<use xlink:href="#XMLID_950_"  style="overflow:visible;fill:none;stroke:#263238;stroke-linecap:round;stroke-linejoin:round;stroke-miterlimit:10;"/>
			</g>
			<path style="fill:none;stroke:#263238;stroke-linecap:round;stroke-linejoin:round;stroke-miterlimit:10;" d="M123.088,349.294
				c0,0-0.113,8.39,3.9,15.306"/>
			<path style="fill:none;stroke:#263238;stroke-linecap:round;stroke-linejoin:round;stroke-miterlimit:10;" d="M116.363,362.418
				c0,0,6.36,7.786,10.894,9.431"/>
			<path style="fill:none;stroke:#263238;stroke-linecap:round;stroke-linejoin:round;stroke-miterlimit:10;" d="M107.265,332.201
				c0,0-5.223,10.855-2.217,21.525"/>
		</g>
		<g>
			<path id="XMLID_953_" style="fill:#92E3A9;" d="M133.349,321.501c-4.489,13.218-5.998,37.405-6.299,60.159
				c-0.38,28.27,1.12,54.32,1.12,54.32c23.58,40.07,76.76,23.47,95.96,15.79c0.07-0.02,0.1-0.03,0.1-0.03
				c4.4-1.77,6.99-3.05,6.99-3.05c6.23-25.79,10.17-48.57,12.58-68.15v-0.01c3.77-30.39,3.86-53.07,3.19-67.28
				c-0.53-11.5-1.57-17.45-1.57-17.45s-16.85,0.21-36.76,1.62h-0.01c-10.78,0.76-22.45,1.86-32.83,3.47
				c-7.71,1.19-14.09,2.72-19.31,4.32c-3.378,1.036-8.915,2.913-11.39,3.832c-1.444,0.536-4.098,2.016-4.098,2.016"/>
			<g>
				<path style="opacity:0.2;fill-opacity:0.7;" d="M208.65,297.42c-10.9,4.68-27.72,10.46-33.87,10.27
					c-6.72-0.2-14.77-0.69-18.27-2.48c5.22-1.6,11.6-3.13,19.31-4.32C186.2,299.28,197.87,298.18,208.65,297.42z"/>
				<path style="opacity:0.2;fill-opacity:0.7;" d="M224.13,451.77c-19.2,7.68-72.38,24.28-95.96-15.79c0,0-1.5-26.05-1.12-54.32
					c7.58,15.6,32.56,25.7,32.56,25.7s-2.76-30.57,0-37.95c2.75-7.39,10.59-50.28,10.59-50.28s3,8.61-1.75,32.08
					c-4.74,23.47-2.64,56.15-2.64,56.15c11.64,2.53,39.54,0,39.54,0c-20.08,28.46-64.33,33.26-64.33,33.26
					C171.62,466.33,221.64,452.48,224.13,451.77z"/>
				<path style="opacity:0.2;fill-opacity:0.7;" d="M243.8,380.53c-0.84-6.64-1.63-11.65-1.63-11.65
					c-1.97,15.77-22.82,20.83-17.94,15.5c4.88-5.34,13.58-21.96,13.58-21.96c-4.48-13.06,2.83-51.36,2.83-51.36s2.54,0.69,6.35,2.19
					C247.66,327.46,247.57,350.14,243.8,380.53z"/>
			</g>
			<path id="XMLID_955_" style="fill:none;stroke:#263238;stroke-linecap:round;stroke-linejoin:round;stroke-miterlimit:10;" d="
				M231.22,448.69c6.23-25.79,10.17-48.57,12.58-68.15v-0.01c3.77-30.39,3.86-53.07,3.19-67.28c-0.53-11.5-1.57-17.45-1.57-17.45
				s-16.85,0.21-36.76,1.62h-0.01c-10.78,0.76-22.45,1.86-32.83,3.47c-7.71,1.19-14.09,2.72-19.31,4.32
				c-3.378,1.036-8.915,2.913-11.39,3.832c-1.444,0.536-4.098,2.016-4.098,2.016"/>
			<path id="XMLID_954_" style="fill:none;stroke:#263238;stroke-linecap:round;stroke-linejoin:round;stroke-miterlimit:10;" d="
				M133.349,321.501c-4.489,13.218-5.998,37.405-6.299,60.159c-0.38,28.27,1.12,54.32,1.12,54.32"/>
			<path style="fill:none;stroke:#263238;stroke-linecap:round;stroke-linejoin:round;stroke-miterlimit:10;" d="M211.117,297.249
				c-0.002,0-36.614,14.601-45.31,13.775"/>
			<path style="fill:none;stroke:#263238;stroke-linecap:round;stroke-linejoin:round;stroke-miterlimit:10;" d="M170.503,317.021
				c0,0-10.623,71.902-7.063,96.43c0,0-2.947,23.561-6.221,38.286"/>
			<path style="fill:none;stroke:#263238;stroke-linecap:round;stroke-linejoin:round;stroke-miterlimit:10;" d="M136.953,401.187
				c0,0-1.601,11.077,26.487,12.264c28.088,1.187,43.759-10.286,43.759-10.286"/>
		</g>
		<g>
			<g>
				<path style="fill:#FFFFFF;stroke:#263238;stroke-linecap:round;stroke-linejoin:round;stroke-miterlimit:10;" d="
					M325.486,231.078c-0.719-5.897-1.24-21.242,0-22.222c1.24-0.98,7.77-11.155,7.77-11.155c1.415,0.109,0.979,2.34,0.979,2.34
					s8.489-14.652,10.448-17.611c1.959-2.958,3.265-0.999,2.939,2.265c0,0,2.331-4.783,3.374-3.319
					c2.068,2.904-2.721,17.359-2.721,17.359s4.321-0.326,4.119,4.571c0,0,2.628-0.816,2.846,3.455
					c0.145,2.843-1.222,11.182-4.144,9.441c0,0-1.842,11.885-12.943,17.615"/>
				<path style="fill:none;stroke:#263238;stroke-linecap:round;stroke-linejoin:round;stroke-miterlimit:10;" d="M334.236,200.041
					c0,0-2.721,4.843-4.571,8.217c-1.85,3.374-1.85,5.224-1.85,5.224"/>
				<path style="fill:none;stroke:#263238;stroke-linecap:round;stroke-linejoin:round;stroke-miterlimit:10;" d="M347.622,184.695
					c0,0-6.321,13.386-7.627,15.345"/>
				<path style="fill:none;stroke:#263238;stroke-linecap:round;stroke-linejoin:round;stroke-miterlimit:10;" d="M348.275,198.735
					c0,0-2.503,2.503-2.83,2.884"/>
				<path style="fill:none;stroke:#263238;stroke-linecap:round;stroke-linejoin:round;stroke-miterlimit:10;" d="M352.395,203.306
					c0,0-0.963,0.816-2.596,2.122"/>
				<path style="fill:none;stroke:#263238;stroke-linecap:round;stroke-linejoin:round;stroke-miterlimit:10;" d="M351.097,216.202
					c0,0,0.552-3.809,0.552-4.136c0-0.326,1.741-1.524,2.286-3.265"/>
			</g>
			<path style="fill:#FFFFFF;stroke:#263238;stroke-linecap:round;stroke-linejoin:round;stroke-miterlimit:10;" d="
				M326.056,226.106c0,0-1.746,5.645-13.499,27.058c-11.754,21.413-16.533,33.265-16.533,33.265l-22.374,6.126l5.777,35.811
				c0,0,38.526-20.334,39.832-23.091c1.306-2.757,10.774-31.733,14.039-44.876c3.265-13.143,7.251-29.178,7.251-29.178"/>
			<g>
				<defs>
					<path id="XMLID_952_" d="M292.81,313.58c-2.01,8.09-5.72,12.46-8.87,14.79c-3,2.24-5.49,2.63-5.49,2.63l-33.03,18.29
						c0,0-7.01-15.92-5.26-34.52c0.59-6.19,2.15-12.68,5.26-18.97l31.72-5.61l2.94-2.94h5.22
						C285.3,287.25,296.73,297.79,292.81,313.58z"/>
				</defs>
				<use xlink:href="#XMLID_952_"  style="overflow:visible;fill:#92E3A9;"/>
				<clipPath id="XMLID_00000174563594422671060100000009955020376111855789_">
					<use xlink:href="#XMLID_952_"  style="overflow:visible;"/>
				</clipPath>
				<path style="opacity:0.2;clip-path:url(#XMLID_00000174563594422671060100000009955020376111855789_);fill-opacity:0.7;" d="
					M283.94,328.37c-3,2.24-5.49,2.63-5.49,2.63l-33.03,18.29c0,0-7.01-15.92-5.26-34.52c6.23,0.7,4.17,21.69,6.36,21.93
					c2.37,0.27,12.66-15.2,14.77-15.2c3.37,0,0.11,14.73,0.01,15.2c0.46-0.16,15.18-5.67,19.42-13.71
					C282.84,318.95,284.37,322.4,283.94,328.37z"/>
				
					<use xlink:href="#XMLID_952_"  style="overflow:visible;fill:none;stroke:#263238;stroke-linecap:round;stroke-linejoin:round;stroke-miterlimit:10;"/>
			</g>
			<path style="fill:none;stroke:#263238;stroke-linecap:round;stroke-linejoin:round;stroke-miterlimit:10;" d="M277.141,290.193
				c0,0,8.54,8.007,6.958,21.523"/>
			<path style="fill:none;stroke:#263238;stroke-linecap:round;stroke-linejoin:round;stroke-miterlimit:10;" d="M258,328.366
				c0,0-9.66,12.731-12.58,20.928c0,0-8.003,26.282-19.08,33.549"/>
			<path style="fill:none;stroke:#263238;stroke-linecap:round;stroke-linejoin:round;stroke-miterlimit:10;" d="M296.023,286.429
				c0,0,5.087-1.484,7.856,0.659"/>
		</g>
	</g>
</g>
</svg>
